# SSTK version 0.8.0
# 42
mtllib original-42.mtl
o #ID250
v -0.673475 -0.597859 -0.083245
v -0.673475 -0.597859 0.054166
v -0.677076 -0.597859 -0.014540
v -0.662712 -0.597859 -0.151197
v -0.662712 -0.597859 0.122118
v -0.644906 -0.597859 0.188573
v -0.644906 -0.597859 -0.217652
v -0.643754 -0.597859 -0.014540
v -0.640336 -0.597859 -0.079762
v -0.620250 -0.597859 -0.281882
v -0.630119 -0.597859 -0.144269
v -0.613215 -0.597859 -0.207355
v -0.589016 -0.597859 -0.343183
v -0.589809 -0.597859 -0.268329
v -0.560159 -0.597859 -0.326522
v -0.551545 -0.597859 -0.400883
v -0.524587 -0.597859 -0.381297
v -0.508248 -0.597859 -0.454350
v -0.483486 -0.597859 -0.432054
v -0.459600 -0.597859 -0.502998
v -0.437303 -0.597859 -0.478236
v -0.406133 -0.597859 -0.546295
v -0.386547 -0.597859 -0.519338
v -0.348432 -0.597859 -0.583766
v -0.331772 -0.597859 -0.554909
v -0.287132 -0.597859 -0.615001
v -0.273579 -0.597859 -0.584560
v -0.222902 -0.597859 -0.639656
v -0.212605 -0.597859 -0.607965
v -0.156447 -0.597859 -0.657463
v -0.149519 -0.597859 -0.624870
v -0.088494 -0.597859 -0.668225
v -0.085011 -0.597859 -0.635086
v -0.019789 -0.597859 -0.671826
v -0.019789 -0.597859 -0.638504
v 0.045433 -0.597859 -0.635086
v 0.048916 -0.597859 -0.668225
v 0.109940 -0.597859 -0.624870
v 0.116868 -0.597859 -0.657463
v 0.173027 -0.597859 -0.607965
v 0.183323 -0.597859 -0.639656
v 0.234000 -0.597859 -0.584560
v 0.247553 -0.597859 -0.615001
v 0.292193 -0.597859 -0.554909
v 0.308854 -0.597859 -0.583766
v 0.346968 -0.597859 -0.519338
v 0.366554 -0.597859 -0.546295
v 0.397725 -0.597859 -0.478236
v 0.420021 -0.597859 -0.502998
v 0.443907 -0.597859 -0.432054
v 0.468670 -0.597859 -0.454350
v 0.485009 -0.597859 -0.381297
v 0.511967 -0.597859 -0.400883
v 0.520580 -0.597859 -0.326522
v 0.549437 -0.597859 -0.343183
v 0.550231 -0.597859 -0.268329
v 0.580672 -0.597859 -0.281882
v 0.573637 -0.597859 -0.207355
v 0.590541 -0.597859 -0.144269
v 0.605327 -0.597859 -0.217652
v 0.600757 -0.597859 -0.079762
v 0.604176 -0.597859 -0.014540
v -0.640336 -0.597859 0.050682
v -0.620250 -0.597859 0.252803
v -0.630119 -0.597859 0.115190
v -0.613215 -0.597859 0.178276
v -0.589016 -0.597859 0.314104
v -0.589809 -0.597859 0.239250
v -0.560159 -0.597859 0.297443
v -0.551545 -0.597859 0.371804
v -0.524587 -0.597859 0.352218
v -0.508248 -0.597859 0.425271
v -0.483486 -0.597859 0.402974
v -0.459600 -0.597859 0.473919
v -0.437303 -0.597859 0.449157
v -0.406133 -0.597859 0.517216
v -0.386547 -0.597859 0.490259
v -0.348432 -0.597859 0.554687
v -0.331772 -0.597859 0.525830
v -0.287132 -0.597859 0.585921
v -0.273579 -0.597859 0.555481
v -0.222902 -0.597859 0.610577
v -0.212605 -0.597859 0.578886
v -0.156447 -0.597859 0.628383
v -0.149519 -0.597859 0.595790
v -0.088494 -0.597859 0.639146
v -0.085011 -0.597859 0.606007
v -0.019789 -0.597859 0.642747
v -0.019789 -0.597859 0.609425
v 0.045433 -0.597859 0.606007
v 0.048916 -0.597859 0.639146
v 0.109940 -0.597859 0.595790
v 0.116868 -0.597859 0.628383
v 0.173027 -0.597859 0.578886
v 0.183323 -0.597859 0.610577
v 0.234000 -0.597859 0.555481
v 0.247553 -0.597859 0.585921
v 0.292193 -0.597859 0.525830
v 0.308854 -0.597859 0.554687
v 0.346968 -0.597859 0.490259
v 0.366554 -0.597859 0.517216
v 0.397725 -0.597859 0.449157
v 0.420021 -0.597859 0.473919
v 0.443907 -0.597859 0.402974
v 0.468670 -0.597859 0.425271
v 0.485009 -0.597859 0.352218
v 0.511967 -0.597859 0.371804
v 0.520580 -0.597859 0.297443
v 0.549437 -0.597859 0.314104
v 0.550231 -0.597859 0.239250
v 0.580672 -0.597859 0.252803
v 0.573637 -0.597859 0.178276
v 0.590541 -0.597859 0.115190
v 0.605327 -0.597859 0.188573
v 0.600757 -0.597859 0.050682
v 0.623134 -0.597859 -0.151197
v 0.623134 -0.597859 0.122118
v 0.633896 -0.597859 0.054166
v 0.633896 -0.597859 -0.083245
v 0.637497 -0.597859 -0.014540
v 0.637497 -0.597859 -0.014540
v 0.633896 -0.597859 -0.083245
v 0.633896 -0.597859 0.054166
v 0.623134 -0.597859 -0.151197
v 0.623134 -0.597859 0.122118
v 0.605327 -0.597859 0.188573
v 0.605327 -0.597859 -0.217652
v 0.604176 -0.597859 -0.014540
v 0.600757 -0.597859 0.050682
v 0.590541 -0.597859 0.115190
v 0.580672 -0.597859 0.252803
v 0.573637 -0.597859 0.178276
v 0.550231 -0.597859 0.239250
v 0.549437 -0.597859 0.314104
v 0.520580 -0.597859 0.297443
v 0.511967 -0.597859 0.371804
v 0.485009 -0.597859 0.352218
v 0.468670 -0.597859 0.425271
v 0.443907 -0.597859 0.402974
v 0.420021 -0.597859 0.473919
v 0.397725 -0.597859 0.449157
v 0.366554 -0.597859 0.517216
v 0.346968 -0.597859 0.490259
v 0.308854 -0.597859 0.554687
v 0.292193 -0.597859 0.525830
v 0.247553 -0.597859 0.585921
v 0.234000 -0.597859 0.555481
v 0.183323 -0.597859 0.610577
v 0.173027 -0.597859 0.578886
v 0.116868 -0.597859 0.628383
v 0.109940 -0.597859 0.595790
v 0.048916 -0.597859 0.639146
v 0.045433 -0.597859 0.606007
v -0.019789 -0.597859 0.642747
v -0.019789 -0.597859 0.609425
v -0.085011 -0.597859 0.606007
v -0.088494 -0.597859 0.639146
v -0.149519 -0.597859 0.595790
v -0.156447 -0.597859 0.628383
v -0.212605 -0.597859 0.578886
v -0.222902 -0.597859 0.610577
v -0.273579 -0.597859 0.555481
v -0.287132 -0.597859 0.585921
v -0.331772 -0.597859 0.525830
v -0.348432 -0.597859 0.554687
v -0.386547 -0.597859 0.490259
v -0.406133 -0.597859 0.517216
v -0.437303 -0.597859 0.449157
v -0.459600 -0.597859 0.473919
v -0.483486 -0.597859 0.402974
v -0.508248 -0.597859 0.425271
v -0.524587 -0.597859 0.352218
v -0.551545 -0.597859 0.371804
v -0.560159 -0.597859 0.297443
v -0.589016 -0.597859 0.314104
v -0.589809 -0.597859 0.239250
v -0.613215 -0.597859 0.178276
v -0.620250 -0.597859 0.252803
v -0.630119 -0.597859 0.115190
v -0.640336 -0.597859 0.050682
v -0.643754 -0.597859 -0.014540
v -0.644906 -0.597859 0.188573
v 0.600757 -0.597859 -0.079762
v 0.590541 -0.597859 -0.144269
v 0.580672 -0.597859 -0.281882
v 0.573637 -0.597859 -0.207355
v 0.550231 -0.597859 -0.268329
v 0.549437 -0.597859 -0.343183
v 0.520580 -0.597859 -0.326522
v 0.511967 -0.597859 -0.400883
v 0.485009 -0.597859 -0.381297
v 0.468670 -0.597859 -0.454350
v 0.443907 -0.597859 -0.432054
v 0.420021 -0.597859 -0.502998
v 0.397725 -0.597859 -0.478236
v 0.366554 -0.597859 -0.546295
v 0.346968 -0.597859 -0.519338
v 0.308854 -0.597859 -0.583766
v 0.292193 -0.597859 -0.554909
v 0.247553 -0.597859 -0.615001
v 0.234000 -0.597859 -0.584560
v 0.183323 -0.597859 -0.639656
v 0.173027 -0.597859 -0.607965
v 0.116868 -0.597859 -0.657463
v 0.109940 -0.597859 -0.624870
v 0.048916 -0.597859 -0.668225
v 0.045433 -0.597859 -0.635086
v -0.019789 -0.597859 -0.671826
v -0.019789 -0.597859 -0.638504
v -0.085011 -0.597859 -0.635086
v -0.088494 -0.597859 -0.668225
v -0.149519 -0.597859 -0.624870
v -0.156447 -0.597859 -0.657463
v -0.212605 -0.597859 -0.607965
v -0.222902 -0.597859 -0.639656
v -0.273579 -0.597859 -0.584560
v -0.287132 -0.597859 -0.615001
v -0.331772 -0.597859 -0.554909
v -0.348432 -0.597859 -0.583766
v -0.386547 -0.597859 -0.519338
v -0.406133 -0.597859 -0.546295
v -0.437303 -0.597859 -0.478236
v -0.459600 -0.597859 -0.502998
v -0.483486 -0.597859 -0.432054
v -0.508248 -0.597859 -0.454350
v -0.524587 -0.597859 -0.381297
v -0.551545 -0.597859 -0.400883
v -0.560159 -0.597859 -0.326522
v -0.589016 -0.597859 -0.343183
v -0.589809 -0.597859 -0.268329
v -0.613215 -0.597859 -0.207355
v -0.620250 -0.597859 -0.281882
v -0.630119 -0.597859 -0.144269
v -0.640336 -0.597859 -0.079762
v -0.644906 -0.597859 -0.217652
v -0.662712 -0.597859 -0.151197
v -0.662712 -0.597859 0.122118
v -0.673475 -0.597859 0.054166
v -0.673475 -0.597859 -0.083245
v -0.677076 -0.597859 -0.014540
vt -0.4233493 1.625285
vt -0.4233493 1.396658
vt -0.4173583 1.510972
vt -0.4412564 1.738347
vt -0.4412564 1.283597
vt -0.4708836 1.173027
vt -0.4708836 1.848917
vt -0.4727998 1.510972
vt -0.478487 1.61949
vt -0.5119062 1.955784
vt -0.4954863 1.72682
vt -0.5236115 1.831784
vt -0.5638747 2.057778
vt -0.5625544 1.933234
vt -0.6118884 2.030058
vt -0.6262199 2.153781
vt -0.6710729 2.121194
vt -0.6982586 2.242742
vt -0.7394596 2.205644
vt -0.7792015 2.323685
vt -0.8162991 2.282484
vt -0.8681619 2.395723
vt -0.9007495 2.35087
vt -0.964165 2.458069
vt -0.9918857 2.410055
vt -1.066159 2.510037
vt -1.088709 2.459389
vt -1.173027 2.55106
vt -1.190159 2.498332
vt -1.283597 2.580687
vt -1.295124 2.526457
vt -1.396658 2.598594
vt -1.402453 2.543456
vt -1.510972 2.604585
vt -1.510972 2.549144
vt -1.61949 2.543456
vt -1.625285 2.598594
vt -1.72682 2.526457
vt -1.738347 2.580687
vt -1.831784 2.498332
vt -1.848917 2.55106
vt -1.933234 2.459389
vt -1.955784 2.510037
vt -2.030058 2.410055
vt -2.057778 2.458069
vt -2.121194 2.35087
vt -2.153781 2.395723
vt -2.205644 2.282484
vt -2.242742 2.323685
vt -2.282484 2.205644
vt -2.323685 2.242742
vt -2.35087 2.121194
vt -2.395723 2.153781
vt -2.410055 2.030058
vt -2.458069 2.057778
vt -2.459389 1.933234
vt -2.510037 1.955784
vt -2.498332 1.831784
vt -2.526457 1.72682
vt -2.55106 1.848917
vt -2.543456 1.61949
vt -2.549144 1.510972
vt -0.478487 1.402453
vt -0.5119062 1.066159
vt -0.4954863 1.295124
vt -0.5236115 1.190159
vt -0.5638747 0.964165
vt -0.5625544 1.088709
vt -0.6118884 0.9918857
vt -0.6262199 0.8681619
vt -0.6710729 0.9007495
vt -0.6982586 0.7792015
vt -0.7394596 0.8162991
vt -0.7792015 0.6982586
vt -0.8162991 0.7394596
vt -0.8681619 0.6262199
vt -0.9007495 0.6710729
vt -0.964165 0.5638747
vt -0.9918857 0.6118884
vt -1.066159 0.5119062
vt -1.088709 0.5625544
vt -1.173027 0.4708836
vt -1.190159 0.5236115
vt -1.283597 0.4412564
vt -1.295124 0.4954863
vt -1.396658 0.4233493
vt -1.402453 0.478487
vt -1.510972 0.4173583
vt -1.510972 0.4727998
vt -1.61949 0.478487
vt -1.625285 0.4233493
vt -1.72682 0.4954863
vt -1.738347 0.4412564
vt -1.831784 0.5236115
vt -1.848917 0.4708836
vt -1.933234 0.5625544
vt -1.955784 0.5119062
vt -2.030058 0.6118884
vt -2.057778 0.5638747
vt -2.121194 0.6710729
vt -2.153781 0.6262199
vt -2.205644 0.7394596
vt -2.242742 0.6982586
vt -2.282484 0.8162991
vt -2.323685 0.7792015
vt -2.35087 0.9007495
vt -2.395723 0.8681619
vt -2.410055 0.9918857
vt -2.458069 0.964165
vt -2.459389 1.088709
vt -2.510037 1.066159
vt -2.498332 1.190159
vt -2.526457 1.295124
vt -2.55106 1.173027
vt -2.543456 1.402453
vt -2.580687 1.738347
vt -2.580687 1.283597
vt -2.598594 1.396658
vt -2.598594 1.625285
vt -2.604585 1.510972
vt -1.190816 0.6908162
vt -1.188077 0.7430805
vt -1.188077 0.638552
vt -1.17989 0.7947721
vt -1.17989 0.5868604
vt -1.166344 0.5363077
vt -1.166344 0.8453247
vt -1.165468 0.6908162
vt -1.162868 0.6412016
vt -1.155096 0.5921305
vt -1.147589 0.4874479
vt -1.142237 0.5441406
vt -1.124433 0.4977578
vt -1.123829 0.4408162
vt -1.101877 0.4534901
vt -1.095325 0.3969236
vt -1.074818 0.4118227
vt -1.062389 0.3562509
vt -1.043552 0.3732119
vt -1.025382 0.3192438
vt -1.008421 0.3380809
vt -0.9847089 0.2863077
vt -0.9698098 0.3068145
vt -0.9408162 0.2578035
vt -0.9281423 0.2797554
vt -0.8941846 0.2340435
vt -0.8838747 0.2571999
vt -0.8453247 0.215288
vt -0.8374918 0.2393952
vt -0.7947721 0.2017424
vt -0.789502 0.2265363
vt -0.7430805 0.1935553
vt -0.7404309 0.2187642
vt -0.6908162 0.1908162
vt -0.6908162 0.216164
vt -0.6412016 0.2187642
vt -0.638552 0.1935553
vt -0.5921305 0.2265363
vt -0.5868604 0.2017424
vt -0.5441406 0.2393952
vt -0.5363077 0.215288
vt -0.4977578 0.2571999
vt -0.4874479 0.2340435
vt -0.4534901 0.2797554
vt -0.4408162 0.2578035
vt -0.4118227 0.3068145
vt -0.3969236 0.2863077
vt -0.3732119 0.3380809
vt -0.3562509 0.3192438
vt -0.3380809 0.3732119
vt -0.3192438 0.3562509
vt -0.3068145 0.4118227
vt -0.2863077 0.3969236
vt -0.2797554 0.4534901
vt -0.2578035 0.4408162
vt -0.2571999 0.4977578
vt -0.2393952 0.5441406
vt -0.2340435 0.4874479
vt -0.2265363 0.5921305
vt -0.2187642 0.6412016
vt -0.216164 0.6908162
vt -0.215288 0.5363077
vt -1.162868 0.7404309
vt -1.155096 0.789502
vt -1.147589 0.8941846
vt -1.142237 0.8374918
vt -1.124433 0.8838747
vt -1.123829 0.9408162
vt -1.101877 0.9281423
vt -1.095325 0.9847089
vt -1.074818 0.9698098
vt -1.062389 1.025382
vt -1.043552 1.008421
vt -1.025382 1.062389
vt -1.008421 1.043552
vt -0.9847089 1.095325
vt -0.9698098 1.074818
vt -0.9408162 1.123829
vt -0.9281423 1.101877
vt -0.8941846 1.147589
vt -0.8838747 1.124433
vt -0.8453247 1.166344
vt -0.8374918 1.142237
vt -0.7947721 1.17989
vt -0.789502 1.155096
vt -0.7430805 1.188077
vt -0.7404309 1.162868
vt -0.6908162 1.190816
vt -0.6908162 1.165468
vt -0.6412016 1.162868
vt -0.638552 1.188077
vt -0.5921305 1.155096
vt -0.5868604 1.17989
vt -0.5441406 1.142237
vt -0.5363077 1.166344
vt -0.4977578 1.124433
vt -0.4874479 1.147589
vt -0.4534901 1.101877
vt -0.4408162 1.123829
vt -0.4118227 1.074818
vt -0.3969236 1.095325
vt -0.3732119 1.043552
vt -0.3562509 1.062389
vt -0.3380809 1.008421
vt -0.3192438 1.025382
vt -0.3068145 0.9698098
vt -0.2863077 0.9847089
vt -0.2797554 0.9281423
vt -0.2578035 0.9408162
vt -0.2571999 0.8838747
vt -0.2393952 0.8374918
vt -0.2340435 0.8941846
vt -0.2265363 0.789502
vt -0.2187642 0.7404309
vt -0.215288 0.8453247
vt -0.2017424 0.7947721
vt -0.2017424 0.5868604
vt -0.1935553 0.638552
vt -0.1935553 0.7430805
vt -0.1908162 0.6908162
vn 0 -1 0
vn 0 1 0
usemtl material_0_0
f 121/121/2 122/122/2 123/123/2
f 122/122/2 124/124/2 123/123/2
f 123/123/2 124/124/2 125/125/2
f 125/125/2 124/124/2 126/126/2
f 124/124/2 127/127/2 126/126/2
f 127/127/2 128/128/2 126/126/2
f 128/128/2 129/129/2 126/126/2
f 129/129/2 130/130/2 126/126/2
f 126/126/2 130/130/2 131/131/2
f 130/130/2 132/132/2 131/131/2
f 132/132/2 133/133/2 131/131/2
f 131/131/2 133/133/2 134/134/2
f 133/133/2 135/135/2 134/134/2
f 134/134/2 135/135/2 136/136/2
f 135/135/2 137/137/2 136/136/2
f 136/136/2 137/137/2 138/138/2
f 137/137/2 139/139/2 138/138/2
f 138/138/2 139/139/2 140/140/2
f 139/139/2 141/141/2 140/140/2
f 140/140/2 141/141/2 142/142/2
f 141/141/2 143/143/2 142/142/2
f 142/142/2 143/143/2 144/144/2
f 143/143/2 145/145/2 144/144/2
f 144/144/2 145/145/2 146/146/2
f 145/145/2 147/147/2 146/146/2
f 146/146/2 147/147/2 148/148/2
f 147/147/2 149/149/2 148/148/2
f 148/148/2 149/149/2 150/150/2
f 149/149/2 151/151/2 150/150/2
f 150/150/2 151/151/2 152/152/2
f 151/151/2 153/153/2 152/152/2
f 152/152/2 153/153/2 154/154/2
f 153/153/2 155/155/2 154/154/2
f 155/155/2 156/156/2 154/154/2
f 154/154/2 156/156/2 157/157/2
f 156/156/2 158/158/2 157/157/2
f 157/157/2 158/158/2 159/159/2
f 158/158/2 160/160/2 159/159/2
f 159/159/2 160/160/2 161/161/2
f 160/160/2 162/162/2 161/161/2
f 161/161/2 162/162/2 163/163/2
f 162/162/2 164/164/2 163/163/2
f 163/163/2 164/164/2 165/165/2
f 164/164/2 166/166/2 165/165/2
f 165/165/2 166/166/2 167/167/2
f 166/166/2 168/168/2 167/167/2
f 167/167/2 168/168/2 169/169/2
f 168/168/2 170/170/2 169/169/2
f 169/169/2 170/170/2 171/171/2
f 170/170/2 172/172/2 171/171/2
f 171/171/2 172/172/2 173/173/2
f 172/172/2 174/174/2 173/173/2
f 173/173/2 174/174/2 175/175/2
f 174/174/2 176/176/2 175/175/2
f 176/176/2 177/177/2 175/175/2
f 175/175/2 177/177/2 178/178/2
f 177/177/2 179/179/2 178/178/2
f 179/179/2 180/180/2 178/178/2
f 181/181/2 182/182/2 180/180/2
f 178/178/2 180/180/2 182/182/2
f 128/128/2 127/127/2 183/183/2
f 183/183/2 127/127/2 184/184/2
f 127/127/2 185/185/2 184/184/2
f 184/184/2 185/185/2 186/186/2
f 186/186/2 185/185/2 187/187/2
f 185/185/2 188/188/2 187/187/2
f 187/187/2 188/188/2 189/189/2
f 188/188/2 190/190/2 189/189/2
f 189/189/2 190/190/2 191/191/2
f 190/190/2 192/192/2 191/191/2
f 191/191/2 192/192/2 193/193/2
f 192/192/2 194/194/2 193/193/2
f 193/193/2 194/194/2 195/195/2
f 194/194/2 196/196/2 195/195/2
f 195/195/2 196/196/2 197/197/2
f 196/196/2 198/198/2 197/197/2
f 197/197/2 198/198/2 199/199/2
f 198/198/2 200/200/2 199/199/2
f 199/199/2 200/200/2 201/201/2
f 200/200/2 202/202/2 201/201/2
f 201/201/2 202/202/2 203/203/2
f 202/202/2 204/204/2 203/203/2
f 203/203/2 204/204/2 205/205/2
f 204/204/2 206/206/2 205/205/2
f 205/205/2 206/206/2 207/207/2
f 206/206/2 208/208/2 207/207/2
f 207/207/2 208/208/2 209/209/2
f 209/209/2 208/208/2 210/210/2
f 208/208/2 211/211/2 210/210/2
f 210/210/2 211/211/2 212/212/2
f 211/211/2 213/213/2 212/212/2
f 212/212/2 213/213/2 214/214/2
f 213/213/2 215/215/2 214/214/2
f 214/214/2 215/215/2 216/216/2
f 215/215/2 217/217/2 216/216/2
f 216/216/2 217/217/2 218/218/2
f 217/217/2 219/219/2 218/218/2
f 218/218/2 219/219/2 220/220/2
f 219/219/2 221/221/2 220/220/2
f 220/220/2 221/221/2 222/222/2
f 221/221/2 223/223/2 222/222/2
f 222/222/2 223/223/2 224/224/2
f 223/223/2 225/225/2 224/224/2
f 224/224/2 225/225/2 226/226/2
f 225/225/2 227/227/2 226/226/2
f 226/226/2 227/227/2 228/228/2
f 227/227/2 229/229/2 228/228/2
f 228/228/2 229/229/2 230/230/2
f 230/230/2 229/229/2 231/231/2
f 229/229/2 232/232/2 231/231/2
f 231/231/2 232/232/2 233/233/2
f 233/233/2 232/232/2 234/234/2
f 232/232/2 235/235/2 234/234/2
f 234/234/2 235/235/2 181/181/2
f 181/181/2 235/235/2 182/182/2
f 235/235/2 236/236/2 182/182/2
f 182/182/2 236/236/2 237/237/2
f 237/237/2 236/236/2 238/238/2
f 236/236/2 239/239/2 238/238/2
f 240/240/2 238/238/2 239/239/2
usemtl material_1_0
f 1/1/1 2/2/1 3/3/1
f 2/2/1 1/1/1 4/4/1
f 2/2/1 4/4/1 5/5/1
f 5/5/1 4/4/1 6/6/1
f 6/6/1 4/4/1 7/7/1
f 6/6/1 7/7/1 8/8/1
f 8/8/1 7/7/1 9/9/1
f 9/9/1 7/7/1 10/10/1
f 9/9/1 10/10/1 11/11/1
f 11/11/1 10/10/1 12/12/1
f 12/12/1 10/10/1 13/13/1
f 12/12/1 13/13/1 14/14/1
f 14/14/1 13/13/1 15/15/1
f 15/15/1 13/13/1 16/16/1
f 15/15/1 16/16/1 17/17/1
f 17/17/1 16/16/1 18/18/1
f 17/17/1 18/18/1 19/19/1
f 19/19/1 18/18/1 20/20/1
f 19/19/1 20/20/1 21/21/1
f 21/21/1 20/20/1 22/22/1
f 21/21/1 22/22/1 23/23/1
f 23/23/1 22/22/1 24/24/1
f 23/23/1 24/24/1 25/25/1
f 25/25/1 24/24/1 26/26/1
f 25/25/1 26/26/1 27/27/1
f 27/27/1 26/26/1 28/28/1
f 27/27/1 28/28/1 29/29/1
f 29/29/1 28/28/1 30/30/1
f 29/29/1 30/30/1 31/31/1
f 31/31/1 30/30/1 32/32/1
f 31/31/1 32/32/1 33/33/1
f 33/33/1 32/32/1 34/34/1
f 33/33/1 34/34/1 35/35/1
f 35/35/1 34/34/1 36/36/1
f 36/36/1 34/34/1 37/37/1
f 36/36/1 37/37/1 38/38/1
f 38/38/1 37/37/1 39/39/1
f 38/38/1 39/39/1 40/40/1
f 40/40/1 39/39/1 41/41/1
f 40/40/1 41/41/1 42/42/1
f 42/42/1 41/41/1 43/43/1
f 42/42/1 43/43/1 44/44/1
f 44/44/1 43/43/1 45/45/1
f 44/44/1 45/45/1 46/46/1
f 46/46/1 45/45/1 47/47/1
f 46/46/1 47/47/1 48/48/1
f 48/48/1 47/47/1 49/49/1
f 48/48/1 49/49/1 50/50/1
f 50/50/1 49/49/1 51/51/1
f 50/50/1 51/51/1 52/52/1
f 52/52/1 51/51/1 53/53/1
f 52/52/1 53/53/1 54/54/1
f 54/54/1 53/53/1 55/55/1
f 54/54/1 55/55/1 56/56/1
f 56/56/1 55/55/1 57/57/1
f 56/56/1 57/57/1 58/58/1
f 58/58/1 57/57/1 59/59/1
f 59/59/1 57/57/1 60/60/1
f 59/59/1 60/60/1 61/61/1
f 61/61/1 60/60/1 62/62/1
f 6/6/1 63/63/1 64/64/1
f 63/63/1 6/6/1 8/8/1
f 64/64/1 63/63/1 65/65/1
f 64/64/1 65/65/1 66/66/1
f 64/64/1 66/66/1 67/67/1
f 67/67/1 66/66/1 68/68/1
f 67/67/1 68/68/1 69/69/1
f 67/67/1 69/69/1 70/70/1
f 70/70/1 69/69/1 71/71/1
f 70/70/1 71/71/1 72/72/1
f 72/72/1 71/71/1 73/73/1
f 72/72/1 73/73/1 74/74/1
f 74/74/1 73/73/1 75/75/1
f 74/74/1 75/75/1 76/76/1
f 76/76/1 75/75/1 77/77/1
f 76/76/1 77/77/1 78/78/1
f 78/78/1 77/77/1 79/79/1
f 78/78/1 79/79/1 80/80/1
f 80/80/1 79/79/1 81/81/1
f 80/80/1 81/81/1 82/82/1
f 82/82/1 81/81/1 83/83/1
f 82/82/1 83/83/1 84/84/1
f 84/84/1 83/83/1 85/85/1
f 84/84/1 85/85/1 86/86/1
f 86/86/1 85/85/1 87/87/1
f 86/86/1 87/87/1 88/88/1
f 88/88/1 87/87/1 89/89/1
f 88/88/1 89/89/1 90/90/1
f 88/88/1 90/90/1 91/91/1
f 91/91/1 90/90/1 92/92/1
f 91/91/1 92/92/1 93/93/1
f 93/93/1 92/92/1 94/94/1
f 93/93/1 94/94/1 95/95/1
f 95/95/1 94/94/1 96/96/1
f 95/95/1 96/96/1 97/97/1
f 97/97/1 96/96/1 98/98/1
f 97/97/1 98/98/1 99/99/1
f 99/99/1 98/98/1 100/100/1
f 99/99/1 100/100/1 101/101/1
f 101/101/1 100/100/1 102/102/1
f 101/101/1 102/102/1 103/103/1
f 103/103/1 102/102/1 104/104/1
f 103/103/1 104/104/1 105/105/1
f 105/105/1 104/104/1 106/106/1
f 105/105/1 106/106/1 107/107/1
f 107/107/1 106/106/1 108/108/1
f 107/107/1 108/108/1 109/109/1
f 109/109/1 108/108/1 110/110/1
f 109/109/1 110/110/1 111/111/1
f 111/111/1 110/110/1 112/112/1
f 111/111/1 112/112/1 113/113/1
f 111/111/1 113/113/1 114/114/1
f 114/114/1 113/113/1 115/115/1
f 114/114/1 115/115/1 62/62/1
f 114/114/1 62/62/1 60/60/1
f 114/114/1 60/60/1 116/116/1
f 114/114/1 116/116/1 117/117/1
f 117/117/1 116/116/1 118/118/1
f 118/118/1 116/116/1 119/119/1
f 118/118/1 119/119/1 120/120/1
