# SSTK version 0.8.0
# 41
mtllib original-41.mtl
o #ID242
v 0.662877 -0.560332 -0.086291
v 0.666637 -0.559018 -0.014540
v 0.666637 -0.560332 -0.014540
v 0.662877 -0.559018 -0.086291
v 0.662877 -0.559018 -0.086291
v 0.662877 -0.560332 -0.086291
v 0.666637 -0.559018 -0.014540
v 0.666637 -0.560332 -0.014540
v 0.662877 -0.559018 0.057211
v 0.662877 -0.560332 0.057211
v 0.662877 -0.559018 0.057211
v 0.662877 -0.560332 0.057211
v 0.651637 -0.560332 -0.157256
v 0.651637 -0.559018 -0.157256
v 0.651637 -0.559018 -0.157256
v 0.651637 -0.560332 -0.157256
v 0.651637 -0.559018 0.128176
v 0.651637 -0.560332 0.128176
v 0.651637 -0.559018 0.128176
v 0.651637 -0.560332 0.128176
v 0.633041 -0.560332 -0.226657
v 0.633041 -0.559018 -0.226657
v 0.633041 -0.559018 -0.226657
v 0.633041 -0.560332 -0.226657
v 0.633041 -0.559018 0.197578
v 0.633041 -0.560332 0.197578
v 0.633041 -0.559018 0.197578
v 0.633041 -0.560332 0.197578
v 0.607292 -0.560332 -0.293734
v 0.607292 -0.559018 -0.293734
v 0.607292 -0.559018 -0.293734
v 0.607292 -0.560332 -0.293734
v 0.607292 -0.559018 0.264655
v 0.607292 -0.560332 0.264655
v 0.607292 -0.559018 0.264655
v 0.607292 -0.560332 0.264655
v 0.574674 -0.560332 -0.357753
v 0.574674 -0.559018 -0.357753
v 0.574674 -0.559018 -0.357753
v 0.574674 -0.560332 -0.357753
v 0.574674 -0.559018 0.328674
v 0.574674 -0.560332 0.328674
v 0.574674 -0.559018 0.328674
v 0.574674 -0.560332 0.328674
v 0.535541 -0.560332 -0.418011
v 0.535541 -0.559018 -0.418011
v 0.535541 -0.559018 -0.418011
v 0.535541 -0.560332 -0.418011
v 0.535541 -0.559018 0.388932
v 0.535541 -0.560332 0.388932
v 0.535541 -0.559018 0.388932
v 0.535541 -0.560332 0.388932
v 0.490325 -0.560332 -0.473849
v 0.490325 -0.559018 -0.473849
v 0.490325 -0.559018 -0.473849
v 0.490325 -0.560332 -0.473849
v 0.490325 -0.559018 0.444769
v 0.490325 -0.560332 0.444769
v 0.490325 -0.559018 0.444769
v 0.490325 -0.560332 0.444769
v 0.439520 -0.560332 -0.524654
v 0.439520 -0.559018 -0.524654
v 0.439520 -0.559018 -0.524654
v 0.439520 -0.560332 -0.524654
v 0.439520 -0.560332 0.495575
v 0.439520 -0.559018 0.495575
v 0.439520 -0.559018 0.495575
v 0.439520 -0.560332 0.495575
v 0.383682 -0.559018 -0.569870
v 0.383682 -0.560332 -0.569870
v 0.383682 -0.559018 -0.569870
v 0.383682 -0.560332 -0.569870
v 0.383682 -0.560332 0.540791
v 0.383682 -0.559018 0.540791
v 0.383682 -0.559018 0.540791
v 0.383682 -0.560332 0.540791
v 0.323424 -0.559018 -0.609003
v 0.323424 -0.560332 -0.609003
v 0.323424 -0.559018 -0.609003
v 0.323424 -0.560332 -0.609003
v 0.323424 -0.560332 0.579923
v 0.323424 -0.559018 0.579923
v 0.323424 -0.559018 0.579923
v 0.323424 -0.560332 0.579923
v 0.259406 -0.559018 -0.641621
v 0.259406 -0.560332 -0.641621
v 0.259406 -0.559018 -0.641621
v 0.259406 -0.560332 -0.641621
v 0.259406 -0.560332 0.612542
v 0.259406 -0.559018 0.612542
v 0.259406 -0.559018 0.612542
v 0.259406 -0.560332 0.612542
v 0.192328 -0.559018 -0.667370
v 0.192328 -0.560332 -0.667370
v 0.192328 -0.559018 -0.667370
v 0.192328 -0.560332 -0.667370
v 0.192328 -0.560332 0.638291
v 0.192328 -0.559018 0.638291
v 0.192328 -0.559018 0.638291
v 0.192328 -0.560332 0.638291
v 0.122927 -0.559018 -0.685966
v 0.122927 -0.560332 -0.685966
v 0.122927 -0.559018 -0.685966
v 0.122927 -0.560332 -0.685966
v 0.122927 -0.560332 0.656887
v 0.122927 -0.559018 0.656887
v 0.122927 -0.559018 0.656887
v 0.122927 -0.560332 0.656887
v 0.051962 -0.559018 -0.697206
v 0.051962 -0.560332 -0.697206
v 0.051962 -0.559018 -0.697206
v 0.051962 -0.560332 -0.697206
v 0.051962 -0.560332 0.668126
v 0.051962 -0.559018 0.668126
v 0.051962 -0.559018 0.668126
v 0.051962 -0.560332 0.668126
v -0.019789 -0.559018 -0.700966
v -0.019789 -0.560332 -0.700966
v -0.019789 -0.559018 -0.700966
v -0.019789 -0.560332 -0.700966
v -0.019789 -0.560332 0.671887
v -0.019789 -0.559018 0.671887
v -0.019789 -0.559018 0.671887
v -0.019789 -0.560332 0.671887
v -0.091540 -0.559018 -0.697206
v -0.091540 -0.560332 -0.697206
v -0.091540 -0.559018 -0.697206
v -0.091540 -0.560332 -0.697206
v -0.091540 -0.560332 0.668126
v -0.091540 -0.559018 0.668126
v -0.091540 -0.559018 0.668126
v -0.091540 -0.560332 0.668126
v -0.162505 -0.559018 -0.685966
v -0.162505 -0.560332 -0.685966
v -0.162505 -0.559018 -0.685966
v -0.162505 -0.560332 -0.685966
v -0.162505 -0.560332 0.656887
v -0.162505 -0.559018 0.656887
v -0.162505 -0.559018 0.656887
v -0.162505 -0.560332 0.656887
v -0.231907 -0.559018 -0.667370
v -0.231907 -0.560332 -0.667370
v -0.231907 -0.559018 -0.667370
v -0.231907 -0.560332 -0.667370
v -0.231907 -0.560332 0.638291
v -0.231907 -0.559018 0.638291
v -0.231907 -0.559018 0.638291
v -0.231907 -0.560332 0.638291
v -0.298984 -0.559018 -0.641621
v -0.298984 -0.560332 -0.641621
v -0.298984 -0.559018 -0.641621
v -0.298984 -0.560332 -0.641621
v -0.298984 -0.560332 0.612542
v -0.298984 -0.559018 0.612542
v -0.298984 -0.559018 0.612542
v -0.298984 -0.560332 0.612542
v -0.363002 -0.559018 -0.609003
v -0.363002 -0.560332 -0.609003
v -0.363002 -0.559018 -0.609003
v -0.363002 -0.560332 -0.609003
v -0.363002 -0.560332 0.579923
v -0.363002 -0.559018 0.579923
v -0.363002 -0.559018 0.579923
v -0.363002 -0.560332 0.579923
v -0.423260 -0.559018 -0.569870
v -0.423260 -0.560332 -0.569870
v -0.423260 -0.559018 -0.569870
v -0.423260 -0.560332 -0.569870
v -0.423260 -0.560332 0.540791
v -0.423260 -0.559018 0.540791
v -0.423260 -0.559018 0.540791
v -0.423260 -0.560332 0.540791
v -0.479098 -0.559018 -0.524654
v -0.479098 -0.560332 -0.524654
v -0.479098 -0.559018 -0.524654
v -0.479098 -0.560332 -0.524654
v -0.479098 -0.560332 0.495575
v -0.479098 -0.559018 0.495575
v -0.479098 -0.559018 0.495575
v -0.479098 -0.560332 0.495575
v -0.529903 -0.560332 -0.473849
v -0.529903 -0.559018 -0.473849
v -0.529903 -0.560332 -0.473849
v -0.529903 -0.559018 -0.473849
v -0.529903 -0.559018 0.444769
v -0.529903 -0.560332 0.444769
v -0.529903 -0.560332 0.444769
v -0.529903 -0.559018 0.444769
v -0.575120 -0.560332 -0.418011
v -0.575120 -0.559018 -0.418011
v -0.575120 -0.560332 -0.418011
v -0.575120 -0.559018 -0.418011
v -0.575120 -0.559018 0.388932
v -0.575120 -0.560332 0.388932
v -0.575120 -0.560332 0.388932
v -0.575120 -0.559018 0.388932
v -0.614252 -0.560332 -0.357753
v -0.614252 -0.559018 -0.357753
v -0.614252 -0.560332 -0.357753
v -0.614252 -0.559018 -0.357753
v -0.614252 -0.559018 0.328674
v -0.614252 -0.560332 0.328674
v -0.614252 -0.560332 0.328674
v -0.614252 -0.559018 0.328674
v -0.646871 -0.560332 -0.293734
v -0.646871 -0.559018 -0.293734
v -0.646871 -0.560332 -0.293734
v -0.646871 -0.559018 -0.293734
v -0.646871 -0.559018 0.264655
v -0.646871 -0.560332 0.264655
v -0.646871 -0.560332 0.264655
v -0.646871 -0.559018 0.264655
v -0.672620 -0.560332 -0.226657
v -0.672620 -0.559018 -0.226657
v -0.672620 -0.560332 -0.226657
v -0.672620 -0.559018 -0.226657
v -0.672620 -0.559018 0.197578
v -0.672620 -0.560332 0.197578
v -0.672620 -0.560332 0.197578
v -0.672620 -0.559018 0.197578
v -0.691216 -0.560332 -0.157256
v -0.691216 -0.559018 -0.157256
v -0.691216 -0.560332 -0.157256
v -0.691216 -0.559018 -0.157256
v -0.691216 -0.559018 0.128176
v -0.691216 -0.560332 0.128176
v -0.691216 -0.560332 0.128176
v -0.691216 -0.559018 0.128176
v -0.702455 -0.560332 -0.086291
v -0.702455 -0.559018 -0.086291
v -0.702455 -0.560332 -0.086291
v -0.702455 -0.559018 -0.086291
v -0.702455 -0.559018 0.057211
v -0.702455 -0.560332 0.057211
v -0.702455 -0.560332 0.057211
v -0.702455 -0.559018 0.057211
v -0.706216 -0.560332 -0.014540
v -0.706216 -0.559018 -0.014540
v -0.706216 -0.560332 -0.014540
v -0.706216 -0.559018 -0.014540
vt 0.4965318 0.02081286
vt 0.4566833 0.02154194
vt 0.4566833 0.02081286
vt 0.4965318 0.02154194
vt 0.5492506 0.02081286
vt 0.5094021 0.02154194
vt 0.5094021 0.02081286
vt 0.5492506 0.02154194
vt 0.4385913 0.02081286
vt 0.3987428 0.02154194
vt 0.3987428 0.02081286
vt 0.4385913 0.02154194
vt 0.59617 0.02081286
vt 0.5563215 0.02154194
vt 0.5563215 0.02081286
vt 0.59617 0.02154194
vt 0.3760637 0.02081286
vt 0.3362152 0.02154194
vt 0.3362152 0.02081286
vt 0.3760637 0.02154194
vt 0.6367758 0.02081286
vt 0.5969273 0.02154194
vt 0.5969273 0.02081286
vt 0.6367758 0.02154194
vt 0.3096342 0.02081286
vt 0.2697857 0.02154194
vt 0.2697857 0.02081286
vt 0.3096342 0.02154194
vt 0.6706234 0.02081286
vt 0.6307749 0.02154194
vt 0.6307749 0.02081286
vt 0.6706234 0.02154194
vt 0.2400305 0.02081286
vt 0.200182 0.02154194
vt 0.200182 0.02081286
vt 0.2400305 0.02154194
vt 0.6973417 0.02081286
vt 0.6574932 0.02154194
vt 0.6574932 0.02081286
vt 0.6973417 0.02154194
vt 0.1680154 0.02081286
vt 0.1281668 0.02154194
vt 0.1281668 0.02081286
vt 0.1680154 0.02154194
vt 0.7166381 0.02081286
vt 0.6767896 0.02154194
vt 0.6767896 0.02081286
vt 0.7166381 0.02154194
vt 0.09437767 0.02081286
vt 0.05452916 0.02154194
vt 0.05452916 0.02081286
vt 0.09437767 0.02154194
vt 0.7283012 0.02081286
vt 0.6884527 0.02154194
vt 0.6884527 0.02081286
vt 0.7283012 0.02154194
vt 0.01992425 0.02081286
vt -0.01992425 0.02154194
vt -0.01992425 0.02081286
vt 0.01992425 0.02154194
vt 0.7322031 0.02154194
vt 0.6923546 0.02081286
vt 0.7322031 0.02081286
vt 0.6923546 0.02154194
vt -0.05452916 0.02154194
vt -0.09437767 0.02081286
vt -0.05452916 0.02081286
vt -0.09437767 0.02154194
vt -0.1281668 0.02154194
vt -0.1680154 0.02081286
vt -0.1281668 0.02081286
vt -0.1680154 0.02154194
vt -0.200182 0.02154194
vt -0.2400305 0.02081286
vt -0.200182 0.02081286
vt -0.2400305 0.02154194
vt -0.2697857 0.02154194
vt -0.3096342 0.02081286
vt -0.2697857 0.02081286
vt -0.3096342 0.02154194
vt -0.3362152 0.02154194
vt -0.3760637 0.02081286
vt -0.3362152 0.02081286
vt -0.3760637 0.02154194
vt -0.3987428 0.02154194
vt -0.4385913 0.02081286
vt -0.3987428 0.02081286
vt -0.4385913 0.02154194
vt -0.4566833 0.02154194
vt -0.4965318 0.02081286
vt -0.4566833 0.02081286
vt -0.4965318 0.02154194
vt -0.5094021 0.02154194
vt -0.5492506 0.02081286
vt -0.5094021 0.02081286
vt -0.5492506 0.02154194
vt -0.5563215 0.02154194
vt -0.59617 0.02081286
vt -0.5563215 0.02081286
vt -0.59617 0.02154194
vt -0.5969273 0.02154194
vt -0.6367758 0.02081286
vt -0.5969273 0.02081286
vt -0.6367758 0.02154194
vt -0.6307749 0.02154194
vt -0.6706234 0.02081286
vt -0.6307749 0.02081286
vt -0.6706234 0.02154194
vt -0.6574932 0.02154194
vt -0.6973417 0.02081286
vt -0.6574932 0.02081286
vt -0.6973417 0.02154194
vt -0.6767896 0.02154194
vt -0.7166381 0.02081286
vt -0.6767896 0.02081286
vt -0.7166381 0.02154194
vt -0.6884527 0.02154194
vt -0.7283012 0.02081286
vt -0.6884527 0.02081286
vt -0.7283012 0.02154194
vt -0.7322031 0.02154194
vt -0.6923546 0.02081286
vt -0.6923546 0.02154194
vt -0.7322031 0.02081286
vt 0.6810431 0.02954692
vt 0.6810431 0.02854692
vt 0.6263869 0.02954692
vt 0.6263869 0.02854692
vt 0.7533521 0.02954692
vt 0.7533521 0.02854692
vt 0.6986959 0.02954692
vt 0.6986959 0.02854692
vt 0.6015718 0.02954692
vt 0.6015718 0.02854692
vt 0.5469156 0.02954692
vt 0.5469156 0.02854692
vt 0.8177067 0.02954692
vt 0.8177067 0.02854692
vt 0.7630505 0.02954692
vt 0.7630505 0.02854692
vt 0.515809 0.02954692
vt 0.515809 0.02854692
vt 0.4611527 0.02954692
vt 0.4611527 0.02854692
vt 0.8734017 0.02954692
vt 0.8734017 0.02854692
vt 0.8187455 0.02954692
vt 0.8187455 0.02854692
vt 0.4246942 0.02954692
vt 0.4246942 0.02854692
vt 0.370038 0.02954692
vt 0.370038 0.02854692
vt 0.919827 0.02954692
vt 0.919827 0.02854692
vt 0.8651708 0.02954692
vt 0.8651708 0.02854692
vt 0.3292259 0.02954692
vt 0.3292259 0.02854692
vt 0.2745697 0.02954692
vt 0.2745697 0.02854692
vt 0.9564739 0.02954692
vt 0.9564739 0.02854692
vt 0.9018177 0.02954692
vt 0.9018177 0.02854692
vt 0.2304499 0.02954692
vt 0.2304499 0.02854692
vt 0.1757937 0.02954692
vt 0.1757937 0.02854692
vt 0.9829408 0.02954692
vt 0.9829408 0.02854692
vt 0.9282846 0.02954692
vt 0.9282846 0.02854692
vt 0.1294484 0.02954692
vt 0.1294484 0.02854692
vt 0.0747922 0.02954692
vt 0.0747922 0.02854692
vt 0.9989379 0.02954692
vt 0.9989379 0.02854692
vt 0.9442817 0.02954692
vt 0.9442817 0.02854692
vt 0.02732811 0.02954692
vt 0.02732811 0.02854692
vt -0.02732811 0.02954692
vt -0.02732811 0.02854692
vt 0.9496336 0.02954692
vt 1.00429 0.02954692
vt 0.9496336 0.02854692
vt 1.00429 0.02854692
vt -0.1294484 0.02954692
vt -0.0747922 0.02954692
vt -0.1294484 0.02854692
vt -0.0747922 0.02854692
vt -0.2304499 0.02954692
vt -0.1757937 0.02954692
vt -0.2304499 0.02854692
vt -0.1757937 0.02854692
vt -0.3292259 0.02954692
vt -0.2745697 0.02954692
vt -0.3292259 0.02854692
vt -0.2745697 0.02854692
vt -0.4246942 0.02954692
vt -0.370038 0.02954692
vt -0.4246942 0.02854692
vt -0.370038 0.02854692
vt -0.515809 0.02954692
vt -0.4611527 0.02954692
vt -0.515809 0.02854692
vt -0.4611527 0.02854692
vt -0.6015718 0.02954692
vt -0.5469156 0.02954692
vt -0.6015718 0.02854692
vt -0.5469156 0.02854692
vt -0.6810431 0.02954692
vt -0.6263869 0.02954692
vt -0.6810431 0.02854692
vt -0.6263869 0.02854692
vt -0.7533521 0.02954692
vt -0.6986959 0.02954692
vt -0.7533521 0.02854692
vt -0.6986959 0.02854692
vt -0.8177067 0.02954692
vt -0.7630505 0.02954692
vt -0.8177067 0.02854692
vt -0.7630505 0.02854692
vt -0.8734017 0.02954692
vt -0.8187455 0.02954692
vt -0.8734017 0.02854692
vt -0.8187455 0.02854692
vt -0.919827 0.02954692
vt -0.8651708 0.02954692
vt -0.919827 0.02854692
vt -0.8651708 0.02854692
vt -0.9564739 0.02954692
vt -0.9018177 0.02954692
vt -0.9564739 0.02854692
vt -0.9018177 0.02854692
vt -0.9829408 0.02954692
vt -0.9282846 0.02954692
vt -0.9829408 0.02854692
vt -0.9282846 0.02854692
vt -0.9989379 0.02954692
vt -0.9442817 0.02954692
vt -0.9989379 0.02854692
vt -0.9442817 0.02854692
vt -1.00429 0.02854692
vt -1.00429 0.02954692
vt -0.9496336 0.02854692
vt -0.9496336 0.02954692
vn 0.9945218916003378 0 -0.10452849911715961
vn 1 0 0
vn 0.9945218916003378 0 0.10452849911715961
vn 0.9781475988347083 0 -0.20791169975230958
vn 0.9781475988347083 0 0.20791169975230958
vn 0.9510565130859434 0 -0.3090170042518809
vn 0.9510565130859434 0 0.3090170042518809
vn 0.9135454806557615 0 -0.40673659138739143
vn 0.9135454806557615 0 0.40673659138739143
vn 0.866025402838329 0 -0.5000000016387101
vn 0.866025402838329 0 0.5000000016387101
vn 0.8090169736320784 0 -0.5877852808425821
vn 0.8090169736320784 0 0.5877852808425821
vn 0.7431448172322651 0 -0.6691306155160015
vn 0.7431448172322651 0 0.6691306155160015
vn 0.6691306155160015 0 -0.7431448172322651
vn 0.6691306155160015 0 0.7431448172322651
vn 0.5877852808425821 0 -0.8090169736320784
vn 0.5877852808425821 0 0.8090169736320784
vn 0.5000000016387101 0 -0.866025402838329
vn 0.5000000016387101 0 0.866025402838329
vn 0.40673659138739143 0 -0.9135454806557615
vn 0.40673659138739143 0 0.9135454806557615
vn 0.3090170042518809 0 -0.9510565130859434
vn 0.3090170042518809 0 0.9510565130859434
vn 0.20791169975230958 0 -0.9781475988347083
vn 0.20791169975230958 0 0.9781475988347083
vn 0.10452849911715961 0 -0.9945218916003378
vn 0.10452849911715961 0 0.9945218916003378
vn 0 0 -1
vn 0 0 1
vn -0.10452849911715961 0 -0.9945218916003378
vn -0.10452849911715961 0 0.9945218916003378
vn -0.20791169975230958 0 -0.9781475988347083
vn -0.20791169975230958 0 0.9781475988347083
vn -0.3090170042518809 0 -0.9510565130859434
vn -0.3090170042518809 0 0.9510565130859434
vn -0.40673659138739143 0 -0.9135454806557615
vn -0.40673659138739143 0 0.9135454806557615
vn -0.5000000016387101 0 -0.866025402838329
vn -0.5000000016387101 0 0.866025402838329
vn -0.5877852808425821 0 -0.8090169736320784
vn -0.5877852808425821 0 0.8090169736320784
vn -0.6691306155160015 0 -0.7431448172322651
vn -0.6691306155160015 0 0.7431448172322651
vn -0.7431448172322651 0 -0.6691306155160015
vn -0.7431448172322651 0 0.6691306155160015
vn -0.8090169736320784 0 -0.5877852808425821
vn -0.8090169736320784 0 0.5877852808425821
vn -0.866025402838329 0 -0.5000000016387101
vn -0.866025402838329 0 0.5000000016387101
vn -0.9135454806557615 0 -0.40673659138739143
vn -0.9135454806557615 0 0.40673659138739143
vn -0.9510565130859434 0 -0.3090170042518809
vn -0.9510565130859434 0 0.3090170042518809
vn -0.9781475988347083 0 -0.20791169975230958
vn -0.9781475988347083 0 0.20791169975230958
vn -0.9945218916003378 0 -0.10452849911715961
vn -0.9945218916003378 0 0.10452849911715961
vn -1 0 0
usemtl material_0_0
f 1/1/1 2/2/2 3/3/2
f 2/2/2 1/1/1 4/4/1
f 3/5/2 9/6/3 10/7/3
f 9/6/3 3/5/2 2/8/2
f 13/9/4 4/10/1 1/11/1
f 4/10/1 13/9/4 14/12/4
f 10/13/3 17/14/5 18/15/5
f 17/14/5 10/13/3 9/16/3
f 21/17/6 14/18/4 13/19/4
f 14/18/4 21/17/6 22/20/6
f 18/21/5 25/22/7 26/23/7
f 25/22/7 18/21/5 17/24/5
f 29/25/8 22/26/6 21/27/6
f 22/26/6 29/25/8 30/28/8
f 26/29/7 33/30/9 34/31/9
f 33/30/9 26/29/7 25/32/7
f 37/33/10 30/34/8 29/35/8
f 30/34/8 37/33/10 38/36/10
f 34/37/9 41/38/11 42/39/11
f 41/38/11 34/37/9 33/40/9
f 45/41/12 38/42/10 37/43/10
f 38/42/10 45/41/12 46/44/12
f 42/45/11 49/46/13 50/47/13
f 49/46/13 42/45/11 41/48/11
f 53/49/14 46/50/12 45/51/12
f 46/50/12 53/49/14 54/52/14
f 50/53/13 57/54/15 58/55/15
f 57/54/15 50/53/13 49/56/13
f 61/57/16 54/58/14 53/59/14
f 54/58/14 61/57/16 62/60/16
f 57/61/15 65/62/17 58/63/15
f 65/62/17 57/61/15 66/64/17
f 69/65/18 61/66/16 70/67/18
f 61/66/16 69/65/18 62/68/16
f 66/56/17 73/55/19 65/53/17
f 73/55/19 66/56/17 74/54/19
f 77/69/20 70/70/18 78/71/20
f 70/70/18 77/69/20 69/72/18
f 74/48/19 81/47/21 73/45/19
f 81/47/21 74/48/19 82/46/21
f 85/73/22 78/74/20 86/75/22
f 78/74/20 85/73/22 77/76/20
f 82/40/21 89/39/23 81/37/21
f 89/39/23 82/40/21 90/38/23
f 93/77/24 86/78/22 94/79/24
f 86/78/22 93/77/24 85/80/22
f 90/32/23 97/31/25 89/29/23
f 97/31/25 90/32/23 98/30/25
f 101/81/26 94/82/24 102/83/26
f 94/82/24 101/81/26 93/84/24
f 98/24/25 105/23/27 97/21/25
f 105/23/27 98/24/25 106/22/27
f 109/85/28 102/86/26 110/87/28
f 102/86/26 109/85/28 101/88/26
f 106/16/27 113/15/29 105/13/27
f 113/15/29 106/16/27 114/14/29
f 117/89/30 110/90/28 118/91/30
f 110/90/28 117/89/30 109/92/28
f 114/8/29 121/7/31 113/5/29
f 121/7/31 114/8/29 122/6/31
f 125/93/32 118/94/30 126/95/32
f 118/94/30 125/93/32 117/96/30
f 122/4/31 129/3/33 121/1/31
f 129/3/33 122/4/31 130/2/33
f 133/97/34 126/98/32 134/99/34
f 126/98/32 133/97/34 125/100/32
f 130/12/33 137/11/35 129/9/33
f 137/11/35 130/12/33 138/10/35
f 141/101/36 134/102/34 142/103/36
f 134/102/34 141/101/36 133/104/34
f 138/20/35 145/19/37 137/17/35
f 145/19/37 138/20/35 146/18/37
f 149/105/38 142/106/36 150/107/38
f 142/106/36 149/105/38 141/108/36
f 146/28/37 153/27/39 145/25/37
f 153/27/39 146/28/37 154/26/39
f 157/109/40 150/110/38 158/111/40
f 150/110/38 157/109/40 149/112/38
f 154/36/39 161/35/41 153/33/39
f 161/35/41 154/36/39 162/34/41
f 165/113/42 158/114/40 166/115/42
f 158/114/40 165/113/42 157/116/40
f 162/44/41 169/43/43 161/41/41
f 169/43/43 162/44/41 170/42/43
f 173/117/44 166/118/42 174/119/44
f 166/118/42 173/117/44 165/120/42
f 170/52/43 177/51/45 169/49/43
f 177/51/45 170/52/43 178/50/45
f 173/121/44 181/122/46 182/123/46
f 181/122/46 173/121/44 174/124/44
f 185/58/47 177/57/45 178/60/45
f 177/57/45 185/58/47 186/59/47
f 182/120/46 189/119/48 190/117/48
f 189/119/48 182/120/46 181/118/46
f 193/68/49 186/67/47 185/65/47
f 186/67/47 193/68/49 194/66/49
f 190/116/48 197/115/50 198/113/50
f 197/115/50 190/116/48 189/114/48
f 201/72/51 194/71/49 193/69/49
f 194/71/49 201/72/51 202/70/51
f 198/112/50 205/111/52 206/109/52
f 205/111/52 198/112/50 197/110/50
f 209/76/53 202/75/51 201/73/51
f 202/75/51 209/76/53 210/74/53
f 206/108/52 213/107/54 214/105/54
f 213/107/54 206/108/52 205/106/52
f 217/80/55 210/79/53 209/77/53
f 210/79/53 217/80/55 218/78/55
f 214/104/54 221/103/56 222/101/56
f 221/103/56 214/104/54 213/102/54
f 225/84/57 218/83/55 217/81/55
f 218/83/55 225/84/57 226/82/57
f 222/100/56 229/99/58 230/97/58
f 229/99/58 222/100/56 221/98/56
f 233/88/59 226/87/57 225/85/57
f 226/87/57 233/88/59 234/86/59
f 230/96/58 237/95/60 238/93/60
f 237/95/60 230/96/58 229/94/58
f 238/92/60 234/91/59 233/89/59
f 234/91/59 238/92/60 237/90/60
usemtl material_1_0
f 5/125/59 6/126/59 7/127/60
f 8/128/60 7/127/60 6/126/59
f 7/129/60 8/130/60 11/131/58
f 12/132/58 11/131/58 8/130/60
f 15/133/57 16/134/57 5/135/59
f 6/136/59 5/135/59 16/134/57
f 11/137/58 12/138/58 19/139/56
f 20/140/56 19/139/56 12/138/58
f 23/141/55 24/142/55 15/143/57
f 16/144/57 15/143/57 24/142/55
f 19/145/56 20/146/56 27/147/54
f 28/148/54 27/147/54 20/146/56
f 31/149/53 32/150/53 23/151/55
f 24/152/55 23/151/55 32/150/53
f 27/153/54 28/154/54 35/155/52
f 36/156/52 35/155/52 28/154/54
f 39/157/51 40/158/51 31/159/53
f 32/160/53 31/159/53 40/158/51
f 35/161/52 36/162/52 43/163/50
f 44/164/50 43/163/50 36/162/52
f 47/165/49 48/166/49 39/167/51
f 40/168/51 39/167/51 48/166/49
f 43/169/50 44/170/50 51/171/48
f 52/172/48 51/171/48 44/170/50
f 55/173/47 56/174/47 47/175/49
f 48/176/49 47/175/49 56/174/47
f 51/177/48 52/178/48 59/179/46
f 60/180/46 59/179/46 52/178/48
f 63/181/45 64/182/45 55/183/47
f 56/184/47 55/183/47 64/182/45
f 67/185/44 59/186/46 68/187/44
f 60/188/46 68/187/44 59/186/46
f 63/189/45 71/190/43 64/191/45
f 72/192/43 64/191/45 71/190/43
f 75/179/42 67/177/44 76/180/42
f 68/178/44 76/180/42 67/177/44
f 71/193/43 79/194/41 72/195/43
f 80/196/41 72/195/43 79/194/41
f 83/171/40 75/169/42 84/172/40
f 76/170/42 84/172/40 75/169/42
f 79/197/41 87/198/39 80/199/41
f 88/200/39 80/199/41 87/198/39
f 91/163/38 83/161/40 92/164/38
f 84/162/40 92/164/38 83/161/40
f 87/201/39 95/202/37 88/203/39
f 96/204/37 88/203/39 95/202/37
f 99/155/36 91/153/38 100/156/36
f 92/154/38 100/156/36 91/153/38
f 95/205/37 103/206/35 96/207/37
f 104/208/35 96/207/37 103/206/35
f 107/147/34 99/145/36 108/148/34
f 100/146/36 108/148/34 99/145/36
f 103/209/35 111/210/33 104/211/35
f 112/212/33 104/211/35 111/210/33
f 115/139/32 107/137/34 116/140/32
f 108/138/34 116/140/32 107/137/34
f 111/213/33 119/214/31 112/215/33
f 120/216/31 112/215/33 119/214/31
f 123/131/30 115/129/32 124/132/30
f 116/130/32 124/132/30 115/129/32
f 119/217/31 127/218/29 120/219/31
f 128/220/29 120/219/31 127/218/29
f 131/127/28 123/125/30 132/128/28
f 124/126/30 132/128/28 123/125/30
f 127/221/29 135/222/27 128/223/29
f 136/224/27 128/223/29 135/222/27
f 139/135/26 131/133/28 140/136/26
f 132/134/28 140/136/26 131/133/28
f 135/225/27 143/226/25 136/227/27
f 144/228/25 136/227/27 143/226/25
f 147/143/24 139/141/26 148/144/24
f 140/142/26 148/144/24 139/141/26
f 143/229/25 151/230/23 144/231/25
f 152/232/23 144/231/25 151/230/23
f 155/151/22 147/149/24 156/152/22
f 148/150/24 156/152/22 147/149/24
f 151/233/23 159/234/21 152/235/23
f 160/236/21 152/235/23 159/234/21
f 163/159/20 155/157/22 164/160/20
f 156/158/22 164/160/20 155/157/22
f 159/237/21 167/238/19 160/239/21
f 168/240/19 160/239/21 167/238/19
f 171/167/18 163/165/20 172/168/18
f 164/166/20 172/168/18 163/165/20
f 167/241/19 175/242/17 168/243/19
f 176/244/17 168/243/19 175/242/17
f 179/175/16 171/173/18 180/176/16
f 172/174/18 180/176/16 171/173/18
f 176/245/17 175/246/17 183/247/15
f 184/248/15 183/247/15 175/246/17
f 187/184/14 188/183/14 180/182/16
f 179/181/16 180/182/16 188/183/14
f 183/243/15 184/241/15 191/244/13
f 192/242/13 191/244/13 184/241/15
f 195/191/12 196/189/12 187/192/14
f 188/190/14 187/192/14 196/189/12
f 191/239/13 192/237/13 199/240/11
f 200/238/11 199/240/11 192/237/13
f 203/195/10 204/193/10 195/196/12
f 196/194/12 195/196/12 204/193/10
f 199/235/11 200/233/11 207/236/9
f 208/234/9 207/236/9 200/233/11
f 211/199/8 212/197/8 203/200/10
f 204/198/10 203/200/10 212/197/8
f 207/231/9 208/229/9 215/232/7
f 216/230/7 215/232/7 208/229/9
f 219/203/6 220/201/6 211/204/8
f 212/202/8 211/204/8 220/201/6
f 215/227/7 216/225/7 223/228/5
f 224/226/5 223/228/5 216/225/7
f 227/207/4 228/205/4 219/208/6
f 220/206/6 219/208/6 228/205/4
f 223/223/5 224/221/5 231/224/3
f 232/222/3 231/224/3 224/221/5
f 235/211/1 236/209/1 227/212/4
f 228/210/4 227/212/4 236/209/1
f 231/219/3 232/217/3 239/220/2
f 240/218/2 239/220/2 232/217/3
f 239/215/2 240/213/2 235/216/1
f 236/214/1 235/216/1 240/213/2
