# SSTK version 0.8.0
# 29
mtllib original-29.mtl
o #ID179
v -0.260914 -0.776407 0.148848
v -0.273442 -0.769250 0.181873
v -0.273442 -0.769250 0.148848
v -0.260914 -0.776407 0.181873
v -0.205596 -0.791529 0.148848
v -0.176794 -0.790500 0.148848
v -0.191169 -0.791741 0.148848
v -0.219928 -0.789865 0.148848
v -0.162617 -0.787818 0.148848
v -0.234020 -0.786767 0.148848
v -0.159763 -0.786911 0.148848
v -0.157065 -0.785614 0.148848
v -0.247728 -0.782265 0.148848
v -0.154574 -0.783952 0.148848
v -0.152341 -0.781957 0.148848
v -0.260914 -0.776407 0.148848
v -0.150408 -0.779670 0.148848
v -0.148816 -0.777135 0.148848
v -0.147593 -0.774401 0.148848
v -0.273442 -0.769250 0.148848
v -0.146766 -0.771524 0.148848
v -0.146349 -0.768558 0.148848
v -0.285187 -0.760869 0.148848
v -0.146351 -0.765564 0.148848
v -0.146773 -0.762600 0.148848
v -0.147606 -0.759723 0.148848
v -0.296028 -0.751348 0.148848
v -0.155927 -0.749438 0.148848
v -0.305855 -0.740783 0.148848
v -0.165168 -0.739970 0.148848
v -0.307579 -0.737134 0.148848
v -0.175249 -0.731403 0.148848
v -0.308684 -0.733252 0.148848
v -0.309141 -0.729242 0.148848
v -0.186082 -0.723809 0.148848
v -0.308937 -0.725211 0.148848
v -0.308078 -0.721267 0.148848
v -0.197575 -0.717255 0.148848
v -0.306587 -0.717516 0.148848
v -0.304503 -0.714059 0.148848
v -0.209627 -0.711798 0.148848
v -0.301883 -0.710989 0.148848
v -0.222134 -0.707484 0.148848
v -0.298798 -0.708387 0.148848
v -0.295328 -0.706324 0.148848
v -0.234988 -0.704352 0.148848
v -0.291569 -0.704855 0.148848
v -0.287620 -0.704019 0.148848
v -0.248077 -0.702428 0.148848
v -0.274508 -0.702261 0.148848
v -0.261289 -0.701729 0.148848
v -0.247728 -0.782265 0.148848
v -0.247728 -0.782265 0.181873
v -0.285187 -0.760869 0.181873
v -0.285187 -0.760869 0.148848
v -0.146773 -0.762600 0.148848
v -0.147606 -0.759723 0.181873
v -0.146773 -0.762600 0.181873
v -0.147606 -0.759723 0.148848
v -0.146351 -0.765564 0.148848
v -0.146351 -0.765564 0.181873
v -0.146349 -0.768558 0.148848
v -0.146349 -0.768558 0.181873
v -0.146766 -0.771524 0.148848
v -0.146766 -0.771524 0.181873
v -0.147593 -0.774401 0.148848
v -0.147593 -0.774401 0.181873
v -0.148816 -0.777135 0.148848
v -0.148816 -0.777135 0.181873
v -0.150408 -0.779670 0.148848
v -0.150408 -0.779670 0.181873
v -0.152341 -0.781957 0.148848
v -0.152341 -0.781957 0.181873
v -0.154574 -0.783952 0.181873
v -0.154574 -0.783952 0.148848
v -0.157065 -0.785614 0.181873
v -0.157065 -0.785614 0.148848
v -0.159763 -0.786911 0.181873
v -0.159763 -0.786911 0.148848
v -0.162617 -0.787818 0.181873
v -0.162617 -0.787818 0.148848
v -0.162617 -0.787818 0.148848
v -0.176794 -0.790500 0.181873
v -0.176794 -0.790500 0.148848
v -0.162617 -0.787818 0.181873
v -0.191169 -0.791741 0.181873
v -0.191169 -0.791741 0.148848
v -0.205596 -0.791529 0.181873
v -0.205596 -0.791529 0.148848
v -0.219928 -0.789865 0.181873
v -0.219928 -0.789865 0.148848
v -0.234020 -0.786767 0.181873
v -0.234020 -0.786767 0.148848
v -0.296028 -0.751348 0.181873
v -0.296028 -0.751348 0.148848
v -0.305855 -0.740783 0.148848
v -0.305855 -0.740783 0.181873
v -0.307579 -0.737134 0.148848
v -0.305855 -0.740783 0.181873
v -0.307579 -0.737134 0.181873
v -0.305855 -0.740783 0.148848
v -0.308684 -0.733252 0.148848
v -0.308684 -0.733252 0.181873
v -0.309141 -0.729242 0.148848
v -0.309141 -0.729242 0.181873
v -0.308937 -0.725211 0.148848
v -0.308937 -0.725211 0.181873
v -0.308078 -0.721267 0.148848
v -0.308078 -0.721267 0.181873
v -0.306587 -0.717516 0.148848
v -0.306587 -0.717516 0.181873
v -0.304503 -0.714059 0.148848
v -0.304503 -0.714059 0.181873
v -0.301883 -0.710989 0.148848
v -0.301883 -0.710989 0.181873
v -0.298798 -0.708387 0.181873
v -0.298798 -0.708387 0.148848
v -0.295328 -0.706324 0.181873
v -0.295328 -0.706324 0.148848
v -0.291569 -0.704855 0.181873
v -0.291569 -0.704855 0.148848
v -0.287620 -0.704019 0.181873
v -0.287620 -0.704019 0.148848
v -0.274508 -0.702261 0.181873
v -0.287620 -0.704019 0.148848
v -0.287620 -0.704019 0.181873
v -0.274508 -0.702261 0.148848
v -0.261289 -0.701729 0.181873
v -0.261289 -0.701729 0.148848
v -0.248077 -0.702428 0.181873
v -0.248077 -0.702428 0.148848
v -0.234988 -0.704352 0.181873
v -0.234988 -0.704352 0.148848
v -0.222134 -0.707484 0.181873
v -0.222134 -0.707484 0.148848
v -0.209627 -0.711798 0.181873
v -0.209627 -0.711798 0.148848
v -0.197575 -0.717255 0.181873
v -0.197575 -0.717255 0.148848
v -0.186082 -0.723809 0.181873
v -0.186082 -0.723809 0.148848
v -0.175249 -0.731403 0.181873
v -0.175249 -0.731403 0.148848
v -0.165168 -0.739970 0.181873
v -0.165168 -0.739970 0.148848
v -0.155927 -0.749438 0.148848
v -0.155927 -0.749438 0.181873
v -0.147606 -0.759723 0.148848
v -0.147606 -0.759723 0.181873
vn -0.45159421874540545 -0.8922234370356603 0
vn -0.5391289298048139 -0.8422232465608607 0
vn 0 0 -1
vn -0.3594703089733963 -0.9331565232942279 0
vn -0.6211848070256468 -0.7836641088633 0
vn 0.9777161626141487 0.20993119197266383 0
vn 0.9605767303504356 0.2780150087841776 0
vn 0.9974763253450211 0.07099986180404581 0
vn 0.9975938083625296 -0.06932960058116924 0
vn 0.9780663027805789 -0.20829380059216573 0
vn 0.939278357589235 -0.3431561845056408 0
vn 0.8819938029284665 -0.4712610015647185 0
vn 0.8073406914406347 -0.5900855937439569 0
vn 0.716789115060166 -0.6972900146504782 0
vn 0.6121222403834042 -0.7907631521688414 0
vn 0.4954012717283964 -0.8686642504269916 0
vn 0.3689246090678627 -0.9294593228453437 0
vn 0.3028000972616546 -0.9530540913811412 0
vn 0.18589369292807426 -0.9825698626202428 0
vn 0.1361317066152265 -0.9906907481419345 0
vn 0.03569693861359066 -0.9993626611864271 0
vn -0.06510057051663763 -0.9978787079191579 0
vn -0.16523649558419928 -0.9862539736432258 0
vn -0.263693293509394 -0.964606576256957 0
vn -0.6969280019189181 -0.7171411019745727 0
vn -0.7321891017423283 -0.6811014016207592 0
vn -0.9361257686478379 -0.35166538822223403 0
vn -0.9041854440333033 -0.4271401208014745 0
vn -0.9809712994253813 -0.19415279988627207 0
vn -0.9995058674907474 -0.03143279897763802 0
vn -0.9912323568874152 0.13213029425313502 0
vn -0.9563726657353007 0.29214948953293546 0
vn -0.8958617991690524 0.44433279958786354 0
vn -0.8113226810729577 0.584598586362119 0
vn -0.7050228192481807 0.7091846193618042 0
vn -0.5798132861838469 0.8147493805856428 0
vn -0.43905238311228717 0.8984614654415742 0
vn -0.2865155936452676 0.9580755787504971 0
vn -0.20710030314086456 0.9783197148371089 0
vn -0.08664314104745408 0.9962394120438275 0
vn -0.13289749827536992 0.9911297871379652 0
vn 0.006327893865081472 0.9999799786791894 0
vn 0.09924415127574228 0.9950631127911223 0
vn 0.19130119633587428 0.9815313812000425 0
vn 0.28170201226705105 0.9595019417826597 0
vn 0.3696640001319239 0.9291655003315961 0
vn 0.45442551890311583 0.8907847370547127 0
vn 0.535252809143871 0.8446919144301045 0
vn 0.6114462032741599 0.7912860042371624 0
vn 0.6823457771912964 0.731029575563948 0
vn 0.7473379819634426 0.6644440839640375 0
vn 0.7774408104053262 0.6289561084179958 0
usemtl material_0_0
f 1//1 2//2 3//2
f 2//2 1//1 4//1
f 5//3 6//3 7//3
f 6//3 5//3 8//3
f 6//3 8//3 9//3
f 9//3 8//3 10//3
f 9//3 10//3 11//3
f 11//3 10//3 12//3
f 12//3 10//3 13//3
f 12//3 13//3 14//3
f 14//3 13//3 15//3
f 15//3 13//3 16//3
f 15//3 16//3 17//3
f 17//3 16//3 18//3
f 18//3 16//3 19//3
f 19//3 16//3 20//3
f 19//3 20//3 21//3
f 21//3 20//3 22//3
f 22//3 20//3 23//3
f 22//3 23//3 24//3
f 24//3 23//3 25//3
f 25//3 23//3 26//3
f 26//3 23//3 27//3
f 26//3 27//3 28//3
f 28//3 27//3 29//3
f 28//3 29//3 30//3
f 30//3 29//3 31//3
f 30//3 31//3 32//3
f 32//3 31//3 33//3
f 32//3 33//3 34//3
f 32//3 34//3 35//3
f 35//3 34//3 36//3
f 35//3 36//3 37//3
f 35//3 37//3 38//3
f 38//3 37//3 39//3
f 38//3 39//3 40//3
f 38//3 40//3 41//3
f 41//3 40//3 42//3
f 41//3 42//3 43//3
f 43//3 42//3 44//3
f 43//3 44//3 45//3
f 43//3 45//3 46//3
f 46//3 45//3 47//3
f 46//3 47//3 48//3
f 46//3 48//3 49//3
f 49//3 48//3 50//3
f 49//3 50//3 51//3
f 52//4 4//1 1//1
f 4//1 52//4 53//4
f 3//2 54//5 55//5
f 54//5 3//2 2//2
f 56//6 57//7 58//6
f 57//7 56//6 59//7
f 60//8 58//6 61//8
f 58//6 60//8 56//6
f 62//9 61//8 63//9
f 61//8 62//9 60//8
f 64//10 63//9 65//10
f 63//9 64//10 62//9
f 66//11 65//10 67//11
f 65//10 66//11 64//10
f 68//12 67//11 69//12
f 67//11 68//12 66//11
f 70//13 69//12 71//13
f 69//12 70//13 68//12
f 72//14 71//13 73//14
f 71//13 72//14 70//13
f 72//14 74//15 75//15
f 74//15 72//14 73//14
f 75//15 76//16 77//16
f 76//16 75//15 74//15
f 77//16 78//17 79//17
f 78//17 77//16 76//16
f 79//17 80//18 81//18
f 80//18 79//17 78//17
f 82//19 83//20 84//20
f 83//20 82//19 85//19
f 84//20 86//21 87//21
f 86//21 84//20 83//20
f 87//21 88//22 89//22
f 88//22 87//21 86//21
f 89//22 90//23 91//23
f 90//23 89//22 88//22
f 91//23 92//24 93//24
f 92//24 91//23 90//23
f 93//24 53//4 52//4
f 53//4 93//24 92//24
f 55//5 94//25 95//25
f 94//25 55//5 54//5
f 96//26 94//25 97//26
f 94//25 96//26 95//25
f 98//27 99//28 100//27
f 99//28 98//27 101//28
f 102//29 100//27 103//29
f 100//27 102//29 98//27
f 104//30 103//29 105//30
f 103//29 104//30 102//29
f 106//31 105//30 107//31
f 105//30 106//31 104//30
f 108//32 107//31 109//32
f 107//31 108//32 106//31
f 110//33 109//32 111//33
f 109//32 110//33 108//32
f 112//34 111//33 113//34
f 111//33 112//34 110//33
f 114//35 113//34 115//35
f 113//34 114//35 112//34
f 116//36 114//35 115//35
f 114//35 116//36 117//36
f 118//37 117//36 116//36
f 117//36 118//37 119//37
f 120//38 119//37 118//37
f 119//37 120//38 121//38
f 122//39 121//38 120//38
f 121//38 122//39 123//39
f 124//40 125//41 126//41
f 125//41 124//40 127//40
f 128//42 127//40 124//40
f 127//40 128//42 129//42
f 130//43 129//42 128//42
f 129//42 130//43 131//43
f 132//44 131//43 130//43
f 131//43 132//44 133//44
f 134//45 133//44 132//44
f 133//44 134//45 135//45
f 136//46 135//45 134//45
f 135//45 136//46 137//46
f 138//47 137//46 136//46
f 137//46 138//47 139//47
f 140//48 139//47 138//47
f 139//47 140//48 141//48
f 142//49 141//48 140//48
f 141//48 142//49 143//49
f 144//50 143//49 142//49
f 143//49 144//50 145//50
f 146//51 144//50 147//51
f 144//50 146//51 145//50
f 148//52 147//51 149//52
f 147//51 148//52 146//51
