# SSTK version 0.8.0
# 21
mtllib original-21.mtl
o #ID131
v 0.262461 -0.545125 0.148848
v 0.249954 -0.549439 0.181873
v 0.249954 -0.549439 0.148848
v 0.262461 -0.545125 0.181873
v 0.197580 -0.554662 0.148848
v 0.224011 -0.554495 0.148848
v 0.210799 -0.555194 0.148848
v 0.184468 -0.552904 0.148848
v 0.237100 -0.552571 0.148848
v 0.180519 -0.552068 0.148848
v 0.249954 -0.549439 0.148848
v 0.176760 -0.550599 0.148848
v 0.173291 -0.548536 0.148848
v 0.262461 -0.545125 0.148848
v 0.170205 -0.545934 0.148848
v 0.167585 -0.542864 0.148848
v 0.274513 -0.539668 0.148848
v 0.165501 -0.539407 0.148848
v 0.286006 -0.533114 0.148848
v 0.164010 -0.535656 0.148848
v 0.163151 -0.531713 0.148848
v 0.296839 -0.525521 0.148848
v 0.162947 -0.527682 0.148848
v 0.163404 -0.523671 0.148848
v 0.306920 -0.516953 0.148848
v 0.164509 -0.519789 0.148848
v 0.166233 -0.516140 0.148848
v 0.316161 -0.507485 0.148848
v 0.176060 -0.505575 0.148848
v 0.324483 -0.497200 0.148848
v 0.186901 -0.496054 0.148848
v 0.325315 -0.494324 0.148848
v 0.198646 -0.487673 0.148848
v 0.325737 -0.491359 0.148848
v 0.325739 -0.488365 0.148848
v 0.325322 -0.485400 0.148848
v 0.211174 -0.480516 0.148848
v 0.324495 -0.482522 0.148848
v 0.323273 -0.479789 0.148848
v 0.224360 -0.474658 0.148848
v 0.321680 -0.477253 0.148848
v 0.319747 -0.474966 0.148848
v 0.317514 -0.472971 0.148848
v 0.238068 -0.470156 0.148848
v 0.315024 -0.471309 0.148848
v 0.312325 -0.470012 0.148848
v 0.252160 -0.467058 0.148848
v 0.309471 -0.469105 0.148848
v 0.295294 -0.466423 0.148848
v 0.266492 -0.465394 0.148848
v 0.280919 -0.465182 0.148848
v 0.274513 -0.539668 0.148848
v 0.274513 -0.539668 0.181873
v 0.237100 -0.552571 0.181873
v 0.237100 -0.552571 0.148848
v 0.324483 -0.497200 0.148848
v 0.325315 -0.494324 0.181873
v 0.324483 -0.497200 0.181873
v 0.325315 -0.494324 0.148848
v 0.316161 -0.507485 0.148848
v 0.324483 -0.497200 0.181873
v 0.316161 -0.507485 0.181873
v 0.324483 -0.497200 0.148848
v 0.306920 -0.516953 0.148848
v 0.306920 -0.516953 0.181873
v 0.296839 -0.525521 0.181873
v 0.296839 -0.525521 0.148848
v 0.286006 -0.533114 0.181873
v 0.286006 -0.533114 0.148848
v 0.224011 -0.554495 0.181873
v 0.224011 -0.554495 0.148848
v 0.210799 -0.555194 0.181873
v 0.210799 -0.555194 0.148848
v 0.197580 -0.554662 0.181873
v 0.197580 -0.554662 0.148848
v 0.184468 -0.552904 0.181873
v 0.184468 -0.552904 0.148848
v 0.184468 -0.552904 0.148848
v 0.180519 -0.552068 0.181873
v 0.180519 -0.552068 0.148848
v 0.184468 -0.552904 0.181873
v 0.176760 -0.550599 0.181873
v 0.176760 -0.550599 0.148848
v 0.173291 -0.548536 0.181873
v 0.173291 -0.548536 0.148848
v 0.170205 -0.545934 0.181873
v 0.170205 -0.545934 0.148848
v 0.167585 -0.542864 0.148848
v 0.167585 -0.542864 0.181873
v 0.165501 -0.539407 0.148848
v 0.165501 -0.539407 0.181873
v 0.164010 -0.535656 0.148848
v 0.164010 -0.535656 0.181873
v 0.163151 -0.531713 0.148848
v 0.163151 -0.531713 0.181873
v 0.162947 -0.527682 0.148848
v 0.162947 -0.527682 0.181873
v 0.163404 -0.523671 0.148848
v 0.163404 -0.523671 0.181873
v 0.164509 -0.519789 0.148848
v 0.164509 -0.519789 0.181873
v 0.166233 -0.516140 0.148848
v 0.166233 -0.516140 0.181873
v 0.176060 -0.505575 0.148848
v 0.166233 -0.516140 0.181873
v 0.176060 -0.505575 0.181873
v 0.166233 -0.516140 0.148848
v 0.186901 -0.496054 0.181873
v 0.186901 -0.496054 0.148848
v 0.198646 -0.487673 0.181873
v 0.198646 -0.487673 0.148848
v 0.211174 -0.480516 0.181873
v 0.211174 -0.480516 0.148848
v 0.224360 -0.474658 0.181873
v 0.224360 -0.474658 0.148848
v 0.238068 -0.470156 0.181873
v 0.238068 -0.470156 0.148848
v 0.252160 -0.467058 0.181873
v 0.252160 -0.467058 0.148848
v 0.266492 -0.465394 0.181873
v 0.266492 -0.465394 0.148848
v 0.280919 -0.465182 0.181873
v 0.280919 -0.465182 0.148848
v 0.295294 -0.466423 0.181873
v 0.295294 -0.466423 0.148848
v 0.309471 -0.469105 0.181873
v 0.309471 -0.469105 0.148848
v 0.312325 -0.470012 0.181873
v 0.309471 -0.469105 0.148848
v 0.309471 -0.469105 0.181873
v 0.312325 -0.470012 0.148848
v 0.315024 -0.471309 0.181873
v 0.315024 -0.471309 0.148848
v 0.317514 -0.472971 0.181873
v 0.317514 -0.472971 0.148848
v 0.319747 -0.474966 0.181873
v 0.319747 -0.474966 0.148848
v 0.321680 -0.477253 0.148848
v 0.321680 -0.477253 0.181873
v 0.323273 -0.479789 0.148848
v 0.323273 -0.479789 0.181873
v 0.324495 -0.482522 0.148848
v 0.324495 -0.482522 0.181873
v 0.325322 -0.485400 0.148848
v 0.325322 -0.485400 0.181873
v 0.325739 -0.488365 0.148848
v 0.325739 -0.488365 0.181873
v 0.325737 -0.491359 0.148848
v 0.325737 -0.491359 0.181873
vn 0.3696640001319239 -0.9291655003315961 0
vn 0.28170201226705105 -0.9595019417826597 0
vn 0 0 -1
vn 0.45442551890311583 -0.8907847370547127 0
vn 0.19130119633587428 -0.9815313812000425 0
vn 0.9605767303504356 -0.2780150087841776 0
vn 0.9777161626141487 -0.20993119197266383 0
vn 0.7473379819634426 -0.6644440839640375 0
vn 0.7774408104053262 -0.6289561084179958 0
vn 0.6823457771912964 -0.731029575563948 0
vn 0.6114462032741599 -0.7912860042371624 0
vn 0.535252809143871 -0.8446919144301045 0
vn 0.09924415127574228 -0.9950631127911223 0
vn 0.006327893865081472 -0.9999799786791894 0
vn -0.08664314104745408 -0.9962394120438275 0
vn -0.13289749827536992 -0.9911297871379652 0
vn -0.20710030314086456 -0.9783197148371089 0
vn -0.2865155936452676 -0.9580755787504971 0
vn -0.43905238311228717 -0.8984614654415742 0
vn -0.5798132861838469 -0.8147493805856428 0
vn -0.7050228192481807 -0.7091846193618042 0
vn -0.8113226810729577 -0.584598586362119 0
vn -0.8958617991690524 -0.44433279958786354 0
vn -0.9563726657353007 -0.29214948953293546 0
vn -0.9912323568874152 -0.13213029425313502 0
vn -0.9995058674907474 0.03143279897763802 0
vn -0.9809712994253813 0.19415279988627207 0
vn -0.9361257686478379 0.35166538822223403 0
vn -0.9041854440333033 0.4271401208014745 0
vn -0.6969280019189181 0.7171411019745727 0
vn -0.7321891017423283 0.6811014016207592 0
vn -0.6211848070256468 0.7836641088633 0
vn -0.5391289298048139 0.8422232465608607 0
vn -0.45159421874540545 0.8922234370356603 0
vn -0.3594703089733963 0.9331565232942279 0
vn -0.263693293509394 0.964606576256957 0
vn -0.16523649558419928 0.9862539736432258 0
vn -0.06510057051663763 0.9978787079191579 0
vn 0.03569693861359066 0.9993626611864271 0
vn 0.1361317066152265 0.9906907481419345 0
vn 0.18589369292807426 0.9825698626202428 0
vn 0.3689246090678627 0.9294593228453437 0
vn 0.3028000972616546 0.9530540913811412 0
vn 0.4954012717283964 0.8686642504269916 0
vn 0.6121222403834042 0.7907631521688414 0
vn 0.716789115060166 0.6972900146504782 0
vn 0.8073406914406347 0.5900855937439569 0
vn 0.8819938029284665 0.4712610015647185 0
vn 0.939278357589235 0.3431561845056408 0
vn 0.9780663027805789 0.20829380059216573 0
vn 0.9975938083625296 0.06932960058116924 0
vn 0.9974763253450211 -0.07099986180404581 0
usemtl material_0_0
f 1//1 2//2 3//2
f 2//2 1//1 4//1
f 5//3 6//3 7//3
f 6//3 5//3 8//3
f 6//3 8//3 9//3
f 9//3 8//3 10//3
f 9//3 10//3 11//3
f 11//3 10//3 12//3
f 11//3 12//3 13//3
f 11//3 13//3 14//3
f 14//3 13//3 15//3
f 14//3 15//3 16//3
f 14//3 16//3 17//3
f 17//3 16//3 18//3
f 17//3 18//3 19//3
f 19//3 18//3 20//3
f 19//3 20//3 21//3
f 19//3 21//3 22//3
f 22//3 21//3 23//3
f 22//3 23//3 24//3
f 22//3 24//3 25//3
f 25//3 24//3 26//3
f 25//3 26//3 27//3
f 25//3 27//3 28//3
f 28//3 27//3 29//3
f 28//3 29//3 30//3
f 30//3 29//3 31//3
f 30//3 31//3 32//3
f 32//3 31//3 33//3
f 32//3 33//3 34//3
f 34//3 33//3 35//3
f 35//3 33//3 36//3
f 36//3 33//3 37//3
f 36//3 37//3 38//3
f 38//3 37//3 39//3
f 39//3 37//3 40//3
f 39//3 40//3 41//3
f 41//3 40//3 42//3
f 42//3 40//3 43//3
f 43//3 40//3 44//3
f 43//3 44//3 45//3
f 45//3 44//3 46//3
f 46//3 44//3 47//3
f 46//3 47//3 48//3
f 48//3 47//3 49//3
f 49//3 47//3 50//3
f 49//3 50//3 51//3
f 52//4 4//1 1//1
f 4//1 52//4 53//4
f 3//2 54//5 55//5
f 54//5 3//2 2//2
f 56//6 57//7 58//6
f 57//7 56//6 59//7
f 60//8 61//9 62//8
f 61//9 60//8 63//9
f 64//10 62//8 65//10
f 62//8 64//10 60//8
f 64//10 66//11 67//11
f 66//11 64//10 65//10
f 67//11 68//12 69//12
f 68//12 67//11 66//11
f 69//12 53//4 52//4
f 53//4 69//12 68//12
f 55//5 70//13 71//13
f 70//13 55//5 54//5
f 71//13 72//14 73//14
f 72//14 71//13 70//13
f 73//14 74//15 75//15
f 74//15 73//14 72//14
f 75//15 76//16 77//16
f 76//16 75//15 74//15
f 78//17 79//18 80//18
f 79//18 78//17 81//17
f 80//18 82//19 83//19
f 82//19 80//18 79//18
f 83//19 84//20 85//20
f 84//20 83//19 82//19
f 85//20 86//21 87//21
f 86//21 85//20 84//20
f 88//22 86//21 89//22
f 86//21 88//22 87//21
f 90//23 89//22 91//23
f 89//22 90//23 88//22
f 92//24 91//23 93//24
f 91//23 92//24 90//23
f 94//25 93//24 95//25
f 93//24 94//25 92//24
f 96//26 95//25 97//26
f 95//25 96//26 94//25
f 98//27 97//26 99//27
f 97//26 98//27 96//26
f 100//28 99//27 101//28
f 99//27 100//28 98//27
f 102//29 101//28 103//29
f 101//28 102//29 100//28
f 104//30 105//31 106//30
f 105//31 104//30 107//31
f 108//32 104//30 106//30
f 104//30 108//32 109//32
f 110//33 109//32 108//32
f 109//32 110//33 111//33
f 112//34 111//33 110//33
f 111//33 112//34 113//34
f 114//35 113//34 112//34
f 113//34 114//35 115//35
f 116//36 115//35 114//35
f 115//35 116//36 117//36
f 118//37 117//36 116//36
f 117//36 118//37 119//37
f 120//38 119//37 118//37
f 119//37 120//38 121//38
f 122//39 121//38 120//38
f 121//38 122//39 123//39
f 124//40 123//39 122//39
f 123//39 124//40 125//40
f 126//41 125//40 124//40
f 125//40 126//41 127//41
f 128//42 129//43 130//43
f 129//43 128//42 131//42
f 132//44 131//42 128//42
f 131//42 132//44 133//44
f 134//45 133//44 132//44
f 133//44 134//45 135//45
f 136//46 135//45 134//45
f 135//45 136//46 137//46
f 138//47 136//46 139//47
f 136//46 138//47 137//46
f 140//48 139//47 141//48
f 139//47 140//48 138//47
f 142//49 141//48 143//49
f 141//48 142//49 140//48
f 144//50 143//49 145//50
f 143//49 144//50 142//49
f 146//51 145//50 147//51
f 145//50 146//51 144//50
f 148//52 147//51 149//52
f 147//51 148//52 146//51
f 59//7 149//52 57//7
f 149//52 59//7 148//52
