# SSTK version 0.8.0
# 28
mtllib original-28.mtl
o #ID173
v -0.176794 -0.672227 0.181873
v -0.205596 -0.673255 0.181873
v -0.191169 -0.673468 0.181873
v -0.219928 -0.671592 0.181873
v -0.162617 -0.669544 0.181873
v -0.234020 -0.668493 0.181873
v -0.159763 -0.668638 0.181873
v -0.157065 -0.667341 0.181873
v -0.247728 -0.663992 0.181873
v -0.154574 -0.665678 0.181873
v -0.152341 -0.663684 0.181873
v -0.260914 -0.658133 0.181873
v -0.150408 -0.661396 0.181873
v -0.148816 -0.658861 0.181873
v -0.147593 -0.656128 0.181873
v -0.273442 -0.650977 0.181873
v -0.146766 -0.653250 0.181873
v -0.146349 -0.650285 0.181873
v -0.285187 -0.642595 0.181873
v -0.146351 -0.647290 0.181873
v -0.146773 -0.644326 0.181873
v -0.147606 -0.641450 0.181873
v -0.296028 -0.633074 0.181873
v -0.155927 -0.631164 0.181873
v -0.305855 -0.622510 0.181873
v -0.165168 -0.621697 0.181873
v -0.307579 -0.618860 0.181873
v -0.175249 -0.613129 0.181873
v -0.308684 -0.614978 0.181873
v -0.309141 -0.610968 0.181873
v -0.186082 -0.605535 0.181873
v -0.308937 -0.606937 0.181873
v -0.308078 -0.602993 0.181873
v -0.197575 -0.598982 0.181873
v -0.306587 -0.599243 0.181873
v -0.304503 -0.595786 0.181873
v -0.209627 -0.593524 0.181873
v -0.301883 -0.592715 0.181873
v -0.222134 -0.589211 0.181873
v -0.298798 -0.590114 0.181873
v -0.295328 -0.588051 0.181873
v -0.234988 -0.586079 0.181873
v -0.291569 -0.586581 0.181873
v -0.287620 -0.585746 0.181873
v -0.248077 -0.584155 0.181873
v -0.274508 -0.583987 0.181873
v -0.261289 -0.583455 0.181873
vn 0 0 1
usemtl material_0_0
f 1//1 2//1 3//1
f 2//1 1//1 4//1
f 4//1 1//1 5//1
f 4//1 5//1 6//1
f 6//1 5//1 7//1
f 6//1 7//1 8//1
f 6//1 8//1 9//1
f 9//1 8//1 10//1
f 9//1 10//1 11//1
f 9//1 11//1 12//1
f 12//1 11//1 13//1
f 12//1 13//1 14//1
f 12//1 14//1 15//1
f 12//1 15//1 16//1
f 16//1 15//1 17//1
f 16//1 17//1 18//1
f 16//1 18//1 19//1
f 19//1 18//1 20//1
f 19//1 20//1 21//1
f 19//1 21//1 22//1
f 19//1 22//1 23//1
f 23//1 22//1 24//1
f 23//1 24//1 25//1
f 25//1 24//1 26//1
f 25//1 26//1 27//1
f 27//1 26//1 28//1
f 27//1 28//1 29//1
f 29//1 28//1 30//1
f 30//1 28//1 31//1
f 30//1 31//1 32//1
f 32//1 31//1 33//1
f 33//1 31//1 34//1
f 33//1 34//1 35//1
f 35//1 34//1 36//1
f 36//1 34//1 37//1
f 36//1 37//1 38//1
f 38//1 37//1 39//1
f 38//1 39//1 40//1
f 40//1 39//1 41//1
f 41//1 39//1 42//1
f 41//1 42//1 43//1
f 43//1 42//1 44//1
f 44//1 42//1 45//1
f 44//1 45//1 46//1
f 46//1 45//1 47//1
