# SSTK version 0.8.0
# 22
mtllib original-22.mtl
o #ID137
v 0.224011 -0.554495 0.181873
v 0.197580 -0.554662 0.181873
v 0.210799 -0.555194 0.181873
v 0.184468 -0.552904 0.181873
v 0.237100 -0.552571 0.181873
v 0.180519 -0.552068 0.181873
v 0.249954 -0.549439 0.181873
v 0.176760 -0.550599 0.181873
v 0.173291 -0.548536 0.181873
v 0.262461 -0.545125 0.181873
v 0.170205 -0.545934 0.181873
v 0.167585 -0.542864 0.181873
v 0.274513 -0.539668 0.181873
v 0.165501 -0.539407 0.181873
v 0.286006 -0.533114 0.181873
v 0.164010 -0.535656 0.181873
v 0.163151 -0.531713 0.181873
v 0.296839 -0.525521 0.181873
v 0.162947 -0.527682 0.181873
v 0.163404 -0.523671 0.181873
v 0.306920 -0.516953 0.181873
v 0.164509 -0.519789 0.181873
v 0.166233 -0.516140 0.181873
v 0.316161 -0.507485 0.181873
v 0.176060 -0.505575 0.181873
v 0.324483 -0.497200 0.181873
v 0.186901 -0.496054 0.181873
v 0.325315 -0.494324 0.181873
v 0.198646 -0.487673 0.181873
v 0.325737 -0.491359 0.181873
v 0.325739 -0.488365 0.181873
v 0.325322 -0.485400 0.181873
v 0.211174 -0.480516 0.181873
v 0.324495 -0.482522 0.181873
v 0.323273 -0.479789 0.181873
v 0.224360 -0.474658 0.181873
v 0.321680 -0.477253 0.181873
v 0.319747 -0.474966 0.181873
v 0.317514 -0.472971 0.181873
v 0.238068 -0.470156 0.181873
v 0.315024 -0.471309 0.181873
v 0.312325 -0.470012 0.181873
v 0.252160 -0.467058 0.181873
v 0.309471 -0.469105 0.181873
v 0.295294 -0.466423 0.181873
v 0.266492 -0.465394 0.181873
v 0.280919 -0.465182 0.181873
vn 0 0 1
usemtl material_0_0
f 1//1 2//1 3//1
f 2//1 1//1 4//1
f 4//1 1//1 5//1
f 4//1 5//1 6//1
f 6//1 5//1 7//1
f 6//1 7//1 8//1
f 8//1 7//1 9//1
f 9//1 7//1 10//1
f 9//1 10//1 11//1
f 11//1 10//1 12//1
f 12//1 10//1 13//1
f 12//1 13//1 14//1
f 14//1 13//1 15//1
f 14//1 15//1 16//1
f 16//1 15//1 17//1
f 17//1 15//1 18//1
f 17//1 18//1 19//1
f 19//1 18//1 20//1
f 20//1 18//1 21//1
f 20//1 21//1 22//1
f 22//1 21//1 23//1
f 23//1 21//1 24//1
f 23//1 24//1 25//1
f 25//1 24//1 26//1
f 25//1 26//1 27//1
f 27//1 26//1 28//1
f 27//1 28//1 29//1
f 29//1 28//1 30//1
f 29//1 30//1 31//1
f 29//1 31//1 32//1
f 29//1 32//1 33//1
f 33//1 32//1 34//1
f 33//1 34//1 35//1
f 33//1 35//1 36//1
f 36//1 35//1 37//1
f 36//1 37//1 38//1
f 36//1 38//1 39//1
f 36//1 39//1 40//1
f 40//1 39//1 41//1
f 40//1 41//1 42//1
f 40//1 42//1 43//1
f 43//1 42//1 44//1
f 43//1 44//1 45//1
f 43//1 45//1 46//1
f 46//1 45//1 47//1
