# SSTK version 0.8.0
# 48
mtllib original-48.mtl
o #ID293
v -0.027906 0.572739 0.159089
v -0.046526 0.572618 0.159089
v -0.029224 0.572618 0.159089
v -0.047896 0.572710 0.159089
v -0.048742 0.572987 0.159089
v -0.026988 0.573104 0.159089
v -0.049179 0.573507 0.159089
v -0.026448 0.573653 0.159089
v -0.049325 0.574329 0.159089
v -0.026268 0.574329 0.159089
v -0.026268 0.577828 0.159089
v -0.049325 0.586693 0.159089
v -0.026268 0.586693 0.159089
v -0.026419 0.587607 0.159089
v -0.049165 0.587461 0.159089
v -0.048684 0.588054 0.159089
v -0.026871 0.588171 0.159089
v -0.047823 0.588433 0.159089
v -0.027732 0.588462 0.159089
v -0.046526 0.588560 0.159089
v -0.029107 0.588560 0.159089
v -0.037816 0.588560 0.159089
vn 0 0 1
usemtl material_0_0
f 1//1 2//1 3//1
f 2//1 1//1 4//1
f 4//1 1//1 5//1
f 5//1 1//1 6//1
f 5//1 6//1 7//1
f 7//1 6//1 8//1
f 7//1 8//1 9//1
f 9//1 8//1 10//1
f 9//1 10//1 11//1
f 9//1 11//1 12//1
f 12//1 11//1 13//1
f 12//1 13//1 14//1
f 12//1 14//1 15//1
f 15//1 14//1 16//1
f 16//1 14//1 17//1
f 16//1 17//1 18//1
f 18//1 17//1 19//1
f 18//1 19//1 20//1
f 20//1 19//1 21//1
f 20//1 21//1 22//1
