# SSTK version 0.8.0
# 45
mtllib original-45.mtl
o #ID275
v -0.061257 0.565347 0.159089
v -0.070238 0.572735 0.159089
v -0.076693 0.565347 0.159089
v -0.061257 0.595791 0.159089
v -0.070238 0.595791 0.159089
v -0.095200 0.588171 0.159089
v -0.070394 0.573123 0.159089
v -0.088746 0.595791 0.159089
v -0.095317 0.588443 0.159089
v -0.104298 0.565347 0.159089
v -0.095317 0.565347 0.159089
v -0.104298 0.595791 0.159089
vn 0 0 1
usemtl material_0_0
f 1//1 2//1 3//1
f 2//1 1//1 4//1
f 2//1 4//1 5//1
f 2//1 6//1 3//1
f 6//1 2//1 7//1
f 6//1 7//1 8//1
f 6//1 8//1 9//1
f 9//1 10//1 11//1
f 10//1 9//1 12//1
f 12//1 9//1 8//1
