# SSTK version 0.8.0
# 8
mtllib original-8.mtl
o #ID51
v 0.107263 0.602563 0.160865
v -0.123799 0.599108 0.159089
v 0.103808 0.599108 0.159089
v -0.127254 0.602563 0.160865
v -0.123799 0.558880 0.159089
v -0.127254 0.602563 0.160865
v -0.127254 0.555425 0.160865
v -0.123799 0.599108 0.159089
v 0.107263 0.602563 0.160865
v 0.103808 0.558880 0.159089
v 0.107263 0.555425 0.160865
v 0.103808 0.599108 0.159089
v 0.103808 0.558880 0.159089
v -0.127254 0.555425 0.160865
v 0.107263 0.555425 0.160865
v -0.123799 0.558880 0.159089
vn 0 -0.4573155881729938 0.8893044770009813
vn 0.45731558817299356 0 0.8893044770009814
vn -0.45731558817299356 0 0.8893044770009814
vn 0 0.45731558817299334 0.8893044770009815
usemtl material_0_0
f 1//1 2//1 3//1
f 2//1 1//1 4//1
f 5//2 6//2 7//2
f 6//2 5//2 8//2
f 9//3 10//3 11//3
f 10//3 9//3 12//3
f 13//4 14//4 15//4
f 14//4 13//4 16//4
