# SSTK version 0.8.0
# 13
mtllib original-13.mtl
o #ID83
v -0.176794 -0.435679 0.181873
v -0.205596 -0.436708 0.181873
v -0.191169 -0.436921 0.181873
v -0.219928 -0.435044 0.181873
v -0.162617 -0.432997 0.181873
v -0.234020 -0.431946 0.181873
v -0.159763 -0.432091 0.181873
v -0.157065 -0.430793 0.181873
v -0.247728 -0.427445 0.181873
v -0.154574 -0.429131 0.181873
v -0.152341 -0.427137 0.181873
v -0.260914 -0.421586 0.181873
v -0.150408 -0.424849 0.181873
v -0.148816 -0.422314 0.181873
v -0.147593 -0.419580 0.181873
v -0.273442 -0.414430 0.181873
v -0.146766 -0.416703 0.181873
v -0.146349 -0.413738 0.181873
v -0.285187 -0.406048 0.181873
v -0.146351 -0.410743 0.181873
v -0.146773 -0.407779 0.181873
v -0.147606 -0.404902 0.181873
v -0.296028 -0.396527 0.181873
v -0.155927 -0.394617 0.181873
v -0.305855 -0.385962 0.181873
v -0.165168 -0.385149 0.181873
v -0.307579 -0.382313 0.181873
v -0.175249 -0.376582 0.181873
v -0.308684 -0.378431 0.181873
v -0.309141 -0.374421 0.181873
v -0.186082 -0.368988 0.181873
v -0.308937 -0.370390 0.181873
v -0.308078 -0.366446 0.181873
v -0.197575 -0.362434 0.181873
v -0.306587 -0.362696 0.181873
v -0.304503 -0.359239 0.181873
v -0.209627 -0.356977 0.181873
v -0.301883 -0.356168 0.181873
v -0.222134 -0.352664 0.181873
v -0.298798 -0.353566 0.181873
v -0.295328 -0.351504 0.181873
v -0.234988 -0.349531 0.181873
v -0.291569 -0.350034 0.181873
v -0.287620 -0.349198 0.181873
v -0.248077 -0.347607 0.181873
v -0.274508 -0.347440 0.181873
v -0.261289 -0.346908 0.181873
vn 0 0 1
usemtl material_0_0
f 1//1 2//1 3//1
f 2//1 1//1 4//1
f 4//1 1//1 5//1
f 4//1 5//1 6//1
f 6//1 5//1 7//1
f 6//1 7//1 8//1
f 6//1 8//1 9//1
f 9//1 8//1 10//1
f 9//1 10//1 11//1
f 9//1 11//1 12//1
f 12//1 11//1 13//1
f 12//1 13//1 14//1
f 12//1 14//1 15//1
f 12//1 15//1 16//1
f 16//1 15//1 17//1
f 16//1 17//1 18//1
f 16//1 18//1 19//1
f 19//1 18//1 20//1
f 19//1 20//1 21//1
f 19//1 21//1 22//1
f 19//1 22//1 23//1
f 23//1 22//1 24//1
f 23//1 24//1 25//1
f 25//1 24//1 26//1
f 25//1 26//1 27//1
f 27//1 26//1 28//1
f 27//1 28//1 29//1
f 29//1 28//1 30//1
f 30//1 28//1 31//1
f 30//1 31//1 32//1
f 32//1 31//1 33//1
f 33//1 31//1 34//1
f 33//1 34//1 35//1
f 35//1 34//1 36//1
f 36//1 34//1 37//1
f 36//1 37//1 38//1
f 38//1 37//1 39//1
f 38//1 39//1 40//1
f 40//1 39//1 41//1
f 41//1 39//1 42//1
f 41//1 42//1 43//1
f 43//1 42//1 44//1
f 44//1 42//1 45//1
f 44//1 45//1 46//1
f 46//1 45//1 47//1
