# SSTK version 0.8.0
# 9
mtllib original-9.mtl
o #ID57
v 0.072804 0.570441 0.159089
v 0.051186 0.565231 0.159089
v 0.075603 0.565231 0.159089
v 0.054024 0.570441 0.159089
v -0.095200 0.588171 0.159089
v -0.095317 0.565347 0.159089
v -0.076693 0.565347 0.159089
v -0.095317 0.588443 0.159089
v -0.050531 0.565367 0.159089
v -0.061257 0.565347 0.159089
v -0.045904 0.565036 0.159089
v -0.053641 0.566145 0.159089
v -0.055896 0.567641 0.159089
v -0.056878 0.568749 0.159089
v -0.057490 0.569974 0.159089
v -0.057811 0.571403 0.159089
v -0.061257 0.595791 0.159089
v -0.057918 0.573123 0.159089
v -0.057918 0.588015 0.159089
v -0.057811 0.589721 0.159089
v -0.057490 0.591106 0.159089
v -0.056878 0.592287 0.159089
v -0.055896 0.593380 0.159089
v -0.054827 0.594275 0.159089
v -0.053641 0.594936 0.159089
v -0.050511 0.595713 0.159089
v -0.045981 0.596005 0.159089
v -0.070238 0.595791 0.159089
v -0.088746 0.595791 0.159089
v -0.104298 0.595791 0.159089
v 0.103808 0.558880 0.159089
v 0.086179 0.565231 0.159089
v -0.123799 0.558880 0.159089
v 0.103808 0.599108 0.159089
v -0.037933 0.564958 0.159089
v -0.029923 0.565036 0.159089
v 0.069576 0.595791 0.159089
v 0.057368 0.595791 0.159089
v 0.038126 0.595791 0.159089
v 0.028600 0.595791 0.159089
v 0.024012 0.595791 0.159089
v 0.011376 0.595791 0.159089
v -0.004954 0.595791 0.159089
v -0.014480 0.595791 0.159089
v -0.029651 0.596005 0.159089
v -0.037816 0.596063 0.159089
v -0.104298 0.565347 0.159089
v -0.123799 0.599108 0.159089
v -0.070394 0.573123 0.159089
v -0.070238 0.572735 0.159089
v -0.014480 0.565231 0.159089
v -0.025277 0.565367 0.159089
v 0.040610 0.565231 0.159089
v 0.038126 0.565231 0.159089
v 0.028600 0.565231 0.159089
v 0.026268 0.565231 0.159089
v 0.012465 0.565231 0.159089
v -0.004954 0.565231 0.159089
v -0.022128 0.566145 0.159089
v -0.020927 0.566781 0.159089
v -0.019853 0.567641 0.159089
v -0.018871 0.568749 0.159089
v -0.018259 0.569974 0.159089
v -0.017938 0.571403 0.159089
v -0.017831 0.573123 0.159089
v -0.017831 0.583582 0.159089
v -0.017831 0.588015 0.159089
v -0.017938 0.589721 0.159089
v -0.018259 0.591106 0.159089
v -0.018871 0.592287 0.159089
v -0.019853 0.593380 0.159089
v -0.020917 0.594275 0.159089
v -0.022089 0.594936 0.159089
v -0.025160 0.595713 0.159089
v -0.004954 0.581055 0.159089
v 0.006555 0.581055 0.159089
vn 0 0 1
usemtl material_0_0
f 1//1 2//1 3//1
f 2//1 1//1 4//1
f 5//1 6//1 7//1
f 6//1 5//1 8//1
f 9//1 10//1 11//1
f 10//1 9//1 12//1
f 10//1 12//1 13//1
f 10//1 13//1 14//1
f 10//1 14//1 15//1
f 10//1 15//1 16//1
f 10//1 16//1 17//1
f 17//1 16//1 18//1
f 17//1 18//1 19//1
f 17//1 19//1 20//1
f 17//1 20//1 21//1
f 17//1 21//1 22//1
f 17//1 22//1 23//1
f 17//1 23//1 24//1
f 17//1 24//1 25//1
f 17//1 25//1 26//1
f 17//1 26//1 27//1
f 17//1 27//1 28//1
f 28//1 27//1 29//1
f 29//1 27//1 30//1
f 31//1 32//1 33//1
f 32//1 31//1 34//1
f 33//1 32//1 35//1
f 35//1 32//1 36//1
f 32//1 34//1 37//1
f 37//1 34//1 38//1
f 38//1 34//1 39//1
f 39//1 34//1 40//1
f 40//1 34//1 41//1
f 41//1 34//1 42//1
f 42//1 34//1 43//1
f 43//1 34//1 44//1
f 44//1 34//1 45//1
f 45//1 34//1 46//1
f 33//1 47//1 48//1
f 47//1 33//1 35//1
f 47//1 35//1 11//1
f 47//1 11//1 10//1
f 47//1 10//1 7//1
f 47//1 7//1 6//1
f 48//1 47//1 30//1
f 48//1 30//1 27//1
f 48//1 27//1 46//1
f 48//1 46//1 34//1
f 28//1 49//1 50//1
f 49//1 28//1 29//1
f 36//1 51//1 52//1
f 51//1 36//1 32//1
f 51//1 32//1 3//1
f 51//1 3//1 2//1
f 51//1 2//1 53//1
f 51//1 53//1 54//1
f 51//1 54//1 55//1
f 51//1 55//1 56//1
f 51//1 56//1 57//1
f 51//1 57//1 58//1
f 52//1 51//1 59//1
f 59//1 51//1 60//1
f 60//1 51//1 61//1
f 61//1 51//1 62//1
f 62//1 51//1 63//1
f 63//1 51//1 64//1
f 64//1 51//1 44//1
f 64//1 44//1 65//1
f 65//1 44//1 66//1
f 66//1 44//1 67//1
f 67//1 44//1 68//1
f 68//1 44//1 69//1
f 69//1 44//1 70//1
f 70//1 44//1 71//1
f 71//1 44//1 72//1
f 72//1 44//1 73//1
f 73//1 44//1 74//1
f 74//1 44//1 45//1
f 43//1 75//1 42//1
f 40//1 56//1 55//1
f 56//1 40//1 76//1
f 76//1 40//1 41//1
f 38//1 54//1 53//1
f 54//1 38//1 39//1
f 75//1 58//1 57//1
