# SSTK version 0.8.0
# 34
mtllib original-34.mtl
o #ID209
v 0.003762 -0.727521 0.148848
v 0.007318 -0.727521 0.148848
v 0.005540 -0.727535 0.148848
v 0.001984 -0.727481 0.148848
v 0.009096 -0.727481 0.148848
v 0.010873 -0.727413 0.148848
v 0.000207 -0.727413 0.148848
v -0.001568 -0.727319 0.148848
v 0.012648 -0.727319 0.148848
v -0.003342 -0.727198 0.148848
v 0.014422 -0.727198 0.148848
v -0.005114 -0.727049 0.148848
v 0.016194 -0.727049 0.148848
v -0.006884 -0.726874 0.148848
v 0.017964 -0.726874 0.148848
v -0.008651 -0.726672 0.148848
v 0.019731 -0.726672 0.148848
v -0.010414 -0.726443 0.148848
v 0.021494 -0.726443 0.148848
v 0.023254 -0.726188 0.148848
v -0.012174 -0.726188 0.148848
v -0.013569 -0.725963 0.148848
v 0.025009 -0.725905 0.148848
v -0.013929 -0.725905 0.148848
v 0.026760 -0.725596 0.148848
v -0.015680 -0.725596 0.148848
v -0.017427 -0.725261 0.148848
v 0.028507 -0.725261 0.148848
v -0.019168 -0.724899 0.148848
v 0.030248 -0.724899 0.148848
v -0.020903 -0.724511 0.148848
v 0.031983 -0.724511 0.148848
v -0.022632 -0.724096 0.148848
v 0.033712 -0.724096 0.148848
v -0.024355 -0.723656 0.148848
v 0.035435 -0.723656 0.148848
v -0.026071 -0.723189 0.148848
v 0.037151 -0.723189 0.148848
v 0.037174 -0.723182 0.148848
v -0.027779 -0.722696 0.148848
v 0.038859 -0.722696 0.148848
v -0.029480 -0.722177 0.148848
v 0.040560 -0.722177 0.148848
v 0.042253 -0.721632 0.148848
v -0.031173 -0.721632 0.148848
v -0.032857 -0.721062 0.148848
v 0.043937 -0.721062 0.148848
v -0.034532 -0.720467 0.148848
v 0.045612 -0.720467 0.148848
v -0.036199 -0.719846 0.148848
v 0.047279 -0.719846 0.148848
v 0.048935 -0.719199 0.148848
v -0.037855 -0.719199 0.148848
v 0.050582 -0.718528 0.148848
v -0.039502 -0.718528 0.148848
v 0.052218 -0.717832 0.148848
v -0.041138 -0.717832 0.148848
v 0.053843 -0.717111 0.148848
v -0.042763 -0.717111 0.148848
v 0.055458 -0.716365 0.148848
v -0.044378 -0.716365 0.148848
v 0.057060 -0.715595 0.148848
v -0.045980 -0.715595 0.148848
v 0.058651 -0.714801 0.148848
v -0.047571 -0.714801 0.148848
v 0.060230 -0.713983 0.148848
v -0.049150 -0.713983 0.148848
v 0.061566 -0.713277 0.148848
v -0.056027 -0.709539 0.148848
v 0.068443 -0.708834 0.148848
v -0.062489 -0.704510 0.148848
v 0.074905 -0.703804 0.148848
v -0.068484 -0.698933 0.148848
v 0.080900 -0.698228 0.148848
v -0.070705 -0.696355 0.148848
v 0.083121 -0.695650 0.148848
v -0.072563 -0.693505 0.148848
v 0.084979 -0.692800 0.148848
v -0.074025 -0.690433 0.148848
v 0.086441 -0.689728 0.148848
v -0.075067 -0.687194 0.148848
v 0.087483 -0.686489 0.148848
v -0.075668 -0.683845 0.148848
v 0.088084 -0.683140 0.148848
v -0.075820 -0.680446 0.148848
v 0.088236 -0.679741 0.148848
v -0.075518 -0.677057 0.148848
v 0.087934 -0.676352 0.148848
v -0.074768 -0.673738 0.148848
v 0.087184 -0.673033 0.148848
v -0.073584 -0.670549 0.148848
v 0.086000 -0.669843 0.148848
v -0.071986 -0.667545 0.148848
v 0.084402 -0.666839 0.148848
v -0.070003 -0.664780 0.148848
v 0.082419 -0.664074 0.148848
v -0.067670 -0.662303 0.148848
v 0.080086 -0.661597 0.148848
v -0.061086 -0.658084 0.148848
v 0.073502 -0.657379 0.148848
v -0.059109 -0.657197 0.148848
v 0.071516 -0.656512 0.148848
v -0.057120 -0.656337 0.148848
v 0.069518 -0.655673 0.148848
v -0.055120 -0.655502 0.148848
v 0.067510 -0.654860 0.148848
v -0.053109 -0.654695 0.148848
v 0.065490 -0.654073 0.148848
v -0.051088 -0.653913 0.148848
v 0.063461 -0.653313 0.148848
v -0.049057 -0.653159 0.148848
v 0.061422 -0.652580 0.148848
v -0.047015 -0.652432 0.148848
v 0.059373 -0.651874 0.148848
v -0.044965 -0.651731 0.148848
v 0.057315 -0.651195 0.148848
v -0.042905 -0.651058 0.148848
v 0.055248 -0.650544 0.148848
v -0.040836 -0.650412 0.148848
v 0.053173 -0.649920 0.148848
v -0.038759 -0.649794 0.148848
v 0.051090 -0.649323 0.148848
v -0.036675 -0.649203 0.148848
v 0.048999 -0.648754 0.148848
v -0.034582 -0.648639 0.148848
v 0.046901 -0.648212 0.148848
v -0.032482 -0.648104 0.148848
v 0.044795 -0.647699 0.148848
v -0.030376 -0.647596 0.148848
v 0.042683 -0.647213 0.148848
v -0.028263 -0.647116 0.148848
v 0.040565 -0.646755 0.148848
v -0.026143 -0.646664 0.148848
v 0.038441 -0.646325 0.148848
v -0.024018 -0.646240 0.148848
v 0.036312 -0.645924 0.148848
v -0.021888 -0.645844 0.148848
v 0.034177 -0.645550 0.148848
v -0.019752 -0.645477 0.148848
v 0.032038 -0.645205 0.148848
v -0.017612 -0.645137 0.148848
v 0.029894 -0.644888 0.148848
v -0.015467 -0.644826 0.148848
v 0.027747 -0.644600 0.148848
v -0.013319 -0.644543 0.148848
v 0.025595 -0.644339 0.148848
v -0.011167 -0.644289 0.148848
v 0.023441 -0.644108 0.148848
v -0.009011 -0.644063 0.148848
v 0.021283 -0.643905 0.148848
v -0.006853 -0.643866 0.148848
v 0.019123 -0.643730 0.148848
v -0.004693 -0.643697 0.148848
v 0.016961 -0.643584 0.148848
v -0.002530 -0.643557 0.148848
v 0.014797 -0.643466 0.148848
v -0.000366 -0.643446 0.148848
v 0.012632 -0.643378 0.148848
v 0.001799 -0.643363 0.148848
v 0.010466 -0.643317 0.148848
v 0.003965 -0.643308 0.148848
v 0.008299 -0.643286 0.148848
v 0.006132 -0.643283 0.148848
vn 0 0 -1
usemtl material_0_0
f 1//1 2//1 3//1
f 2//1 1//1 4//1
f 2//1 4//1 5//1
f 5//1 4//1 6//1
f 6//1 4//1 7//1
f 6//1 7//1 8//1
f 6//1 8//1 9//1
f 9//1 8//1 10//1
f 9//1 10//1 11//1
f 11//1 10//1 12//1
f 11//1 12//1 13//1
f 13//1 12//1 14//1
f 13//1 14//1 15//1
f 15//1 14//1 16//1
f 15//1 16//1 17//1
f 17//1 16//1 18//1
f 17//1 18//1 19//1
f 19//1 18//1 20//1
f 20//1 18//1 21//1
f 20//1 21//1 22//1
f 20//1 22//1 23//1
f 23//1 22//1 24//1
f 23//1 24//1 25//1
f 25//1 24//1 26//1
f 25//1 26//1 27//1
f 25//1 27//1 28//1
f 28//1 27//1 29//1
f 28//1 29//1 30//1
f 30//1 29//1 31//1
f 30//1 31//1 32//1
f 32//1 31//1 33//1
f 32//1 33//1 34//1
f 34//1 33//1 35//1
f 34//1 35//1 36//1
f 36//1 35//1 37//1
f 36//1 37//1 38//1
f 38//1 37//1 39//1
f 39//1 37//1 40//1
f 39//1 40//1 41//1
f 41//1 40//1 42//1
f 41//1 42//1 43//1
f 43//1 42//1 44//1
f 44//1 42//1 45//1
f 44//1 45//1 46//1
f 44//1 46//1 47//1
f 47//1 46//1 48//1
f 47//1 48//1 49//1
f 49//1 48//1 50//1
f 49//1 50//1 51//1
f 51//1 50//1 52//1
f 52//1 50//1 53//1
f 52//1 53//1 54//1
f 54//1 53//1 55//1
f 54//1 55//1 56//1
f 56//1 55//1 57//1
f 56//1 57//1 58//1
f 58//1 57//1 59//1
f 58//1 59//1 60//1
f 60//1 59//1 61//1
f 60//1 61//1 62//1
f 62//1 61//1 63//1
f 62//1 63//1 64//1
f 64//1 63//1 65//1
f 64//1 65//1 66//1
f 66//1 65//1 67//1
f 66//1 67//1 68//1
f 68//1 67//1 69//1
f 68//1 69//1 70//1
f 70//1 69//1 71//1
f 70//1 71//1 72//1
f 72//1 71//1 73//1
f 72//1 73//1 74//1
f 74//1 73//1 75//1
f 74//1 75//1 76//1
f 76//1 75//1 77//1
f 76//1 77//1 78//1
f 78//1 77//1 79//1
f 78//1 79//1 80//1
f 80//1 79//1 81//1
f 80//1 81//1 82//1
f 82//1 81//1 83//1
f 82//1 83//1 84//1
f 84//1 83//1 85//1
f 84//1 85//1 86//1
f 86//1 85//1 87//1
f 86//1 87//1 88//1
f 88//1 87//1 89//1
f 88//1 89//1 90//1
f 90//1 89//1 91//1
f 90//1 91//1 92//1
f 92//1 91//1 93//1
f 92//1 93//1 94//1
f 94//1 93//1 95//1
f 94//1 95//1 96//1
f 96//1 95//1 97//1
f 96//1 97//1 98//1
f 98//1 97//1 99//1
f 98//1 99//1 100//1
f 100//1 99//1 101//1
f 100//1 101//1 102//1
f 102//1 101//1 103//1
f 102//1 103//1 104//1
f 104//1 103//1 105//1
f 104//1 105//1 106//1
f 106//1 105//1 107//1
f 106//1 107//1 108//1
f 108//1 107//1 109//1
f 108//1 109//1 110//1
f 110//1 109//1 111//1
f 110//1 111//1 112//1
f 112//1 111//1 113//1
f 112//1 113//1 114//1
f 114//1 113//1 115//1
f 114//1 115//1 116//1
f 116//1 115//1 117//1
f 116//1 117//1 118//1
f 118//1 117//1 119//1
f 118//1 119//1 120//1
f 120//1 119//1 121//1
f 120//1 121//1 122//1
f 122//1 121//1 123//1
f 122//1 123//1 124//1
f 124//1 123//1 125//1
f 124//1 125//1 126//1
f 126//1 125//1 127//1
f 126//1 127//1 128//1
f 128//1 127//1 129//1
f 128//1 129//1 130//1
f 130//1 129//1 131//1
f 130//1 131//1 132//1
f 132//1 131//1 133//1
f 132//1 133//1 134//1
f 134//1 133//1 135//1
f 134//1 135//1 136//1
f 136//1 135//1 137//1
f 136//1 137//1 138//1
f 138//1 137//1 139//1
f 138//1 139//1 140//1
f 140//1 139//1 141//1
f 140//1 141//1 142//1
f 142//1 141//1 143//1
f 142//1 143//1 144//1
f 144//1 143//1 145//1
f 144//1 145//1 146//1
f 146//1 145//1 147//1
f 146//1 147//1 148//1
f 148//1 147//1 149//1
f 148//1 149//1 150//1
f 150//1 149//1 151//1
f 150//1 151//1 152//1
f 152//1 151//1 153//1
f 152//1 153//1 154//1
f 154//1 153//1 155//1
f 154//1 155//1 156//1
f 156//1 155//1 157//1
f 156//1 157//1 158//1
f 158//1 157//1 159//1
f 158//1 159//1 160//1
f 160//1 159//1 161//1
f 160//1 161//1 162//1
f 162//1 161//1 163//1
