# SSTK version 0.8.0
# 15
mtllib original-15.mtl
o #ID95
v 0.003762 -0.491071 0.148848
v 0.007318 -0.491071 0.148848
v 0.005540 -0.491085 0.148848
v 0.001984 -0.491031 0.148848
v 0.009096 -0.491031 0.148848
v 0.000207 -0.490963 0.148848
v 0.010873 -0.490963 0.148848
v -0.001568 -0.490869 0.148848
v 0.012648 -0.490869 0.148848
v -0.003342 -0.490747 0.148848
v 0.014422 -0.490747 0.148848
v -0.005114 -0.490599 0.148848
v 0.016194 -0.490599 0.148848
v -0.006884 -0.490424 0.148848
v 0.017964 -0.490424 0.148848
v -0.008651 -0.490222 0.148848
v 0.019731 -0.490222 0.148848
v -0.010414 -0.489993 0.148848
v 0.021494 -0.489993 0.148848
v 0.023254 -0.489737 0.148848
v -0.012174 -0.489737 0.148848
v -0.013569 -0.489513 0.148848
v 0.025009 -0.489455 0.148848
v -0.013929 -0.489455 0.148848
v -0.015680 -0.489146 0.148848
v 0.026760 -0.489146 0.148848
v -0.017427 -0.488811 0.148848
v 0.028507 -0.488811 0.148848
v -0.019168 -0.488449 0.148848
v 0.030248 -0.488449 0.148848
v -0.020903 -0.488061 0.148848
v 0.031983 -0.488061 0.148848
v -0.022632 -0.487646 0.148848
v 0.033712 -0.487646 0.148848
v -0.024355 -0.487205 0.148848
v 0.035435 -0.487205 0.148848
v -0.026071 -0.486738 0.148848
v 0.037151 -0.486738 0.148848
v 0.037174 -0.486732 0.148848
v -0.027779 -0.486246 0.148848
v 0.038859 -0.486246 0.148848
v -0.029480 -0.485727 0.148848
v 0.040560 -0.485727 0.148848
v 0.042253 -0.485182 0.148848
v -0.031173 -0.485182 0.148848
v -0.032857 -0.484612 0.148848
v 0.043937 -0.484612 0.148848
v -0.034532 -0.484016 0.148848
v 0.045612 -0.484016 0.148848
v -0.036199 -0.483395 0.148848
v 0.047279 -0.483395 0.148848
v 0.048935 -0.482749 0.148848
v -0.037855 -0.482749 0.148848
v 0.050582 -0.482078 0.148848
v -0.039502 -0.482078 0.148848
v -0.041138 -0.481382 0.148848
v 0.052218 -0.481382 0.148848
v 0.053843 -0.480661 0.148848
v -0.042763 -0.480661 0.148848
v 0.055458 -0.479915 0.148848
v -0.044378 -0.479915 0.148848
v -0.045980 -0.479145 0.148848
v 0.057060 -0.479145 0.148848
v 0.058651 -0.478351 0.148848
v -0.047571 -0.478351 0.148848
v 0.060230 -0.477532 0.148848
v -0.049150 -0.477532 0.148848
v -0.056027 -0.473089 0.148848
v 0.061566 -0.476827 0.148848
v 0.068443 -0.472384 0.148848
v -0.062489 -0.468060 0.148848
v 0.074905 -0.467354 0.148848
v -0.068484 -0.462483 0.148848
v 0.080900 -0.461778 0.148848
v -0.070705 -0.459905 0.148848
v 0.083121 -0.459200 0.148848
v -0.072563 -0.457055 0.148848
v 0.084979 -0.456350 0.148848
v -0.074025 -0.453983 0.148848
v 0.086441 -0.453278 0.148848
v -0.075067 -0.450744 0.148848
v 0.087483 -0.450038 0.148848
v -0.075668 -0.447395 0.148848
v 0.088084 -0.446690 0.148848
v -0.075820 -0.443996 0.148848
v 0.088236 -0.443291 0.148848
v -0.075518 -0.440607 0.148848
v 0.087934 -0.439902 0.148848
v -0.074768 -0.437288 0.148848
v 0.087184 -0.436583 0.148848
v -0.073584 -0.434099 0.148848
v 0.086000 -0.433393 0.148848
v -0.071986 -0.431095 0.148848
v 0.084402 -0.430389 0.148848
v -0.070003 -0.428330 0.148848
v 0.082419 -0.427624 0.148848
v -0.067670 -0.425853 0.148848
v 0.080086 -0.425147 0.148848
v -0.061086 -0.421634 0.148848
v 0.073502 -0.420928 0.148848
v -0.059109 -0.420747 0.148848
v 0.071516 -0.420062 0.148848
v -0.057120 -0.419886 0.148848
v 0.069518 -0.419223 0.148848
v -0.055120 -0.419052 0.148848
v 0.067510 -0.418409 0.148848
v -0.053109 -0.418244 0.148848
v 0.065490 -0.417623 0.148848
v -0.051088 -0.417463 0.148848
v 0.063461 -0.416863 0.148848
v -0.049057 -0.416709 0.148848
v 0.061422 -0.416130 0.148848
v -0.047015 -0.415982 0.148848
v 0.059373 -0.415424 0.148848
v -0.044965 -0.415281 0.148848
v 0.057315 -0.414745 0.148848
v -0.042905 -0.414608 0.148848
v 0.055248 -0.414094 0.148848
v -0.040836 -0.413962 0.148848
v 0.053173 -0.413469 0.148848
v -0.038759 -0.413344 0.148848
v 0.051090 -0.412873 0.148848
v -0.036675 -0.412752 0.148848
v 0.048999 -0.412303 0.148848
v -0.034582 -0.412189 0.148848
v 0.046901 -0.411763 0.148848
v -0.032482 -0.411654 0.148848
v 0.044795 -0.411248 0.148848
v -0.030376 -0.411146 0.148848
v 0.042683 -0.410763 0.148848
v -0.028263 -0.410666 0.148848
v 0.040565 -0.410305 0.148848
v -0.026143 -0.410214 0.148848
v 0.038441 -0.409875 0.148848
v -0.024018 -0.409790 0.148848
v 0.036312 -0.409474 0.148848
v -0.021888 -0.409394 0.148848
v 0.034177 -0.409100 0.148848
v -0.019752 -0.409026 0.148848
v 0.032038 -0.408755 0.148848
v -0.017612 -0.408687 0.148848
v 0.029894 -0.408438 0.148848
v -0.015467 -0.408376 0.148848
v 0.027747 -0.408150 0.148848
v -0.013319 -0.408093 0.148848
v 0.025595 -0.407890 0.148848
v -0.011167 -0.407839 0.148848
v 0.023441 -0.407658 0.148848
v -0.009011 -0.407613 0.148848
v 0.021283 -0.407455 0.148848
v -0.006853 -0.407416 0.148848
v 0.019123 -0.407280 0.148848
v -0.004693 -0.407247 0.148848
v 0.016961 -0.407134 0.148848
v -0.002530 -0.407107 0.148848
v 0.014797 -0.407016 0.148848
v -0.000366 -0.406996 0.148848
v 0.012632 -0.406928 0.148848
v 0.001799 -0.406913 0.148848
v 0.010466 -0.406867 0.148848
v 0.003965 -0.406858 0.148848
v 0.008299 -0.406836 0.148848
v 0.006132 -0.406832 0.148848
vn 0 0 -1
usemtl material_0_0
f 1//1 2//1 3//1
f 2//1 1//1 4//1
f 2//1 4//1 5//1
f 5//1 4//1 6//1
f 5//1 6//1 7//1
f 7//1 6//1 8//1
f 7//1 8//1 9//1
f 9//1 8//1 10//1
f 9//1 10//1 11//1
f 11//1 10//1 12//1
f 11//1 12//1 13//1
f 13//1 12//1 14//1
f 13//1 14//1 15//1
f 15//1 14//1 16//1
f 15//1 16//1 17//1
f 17//1 16//1 18//1
f 17//1 18//1 19//1
f 19//1 18//1 20//1
f 20//1 18//1 21//1
f 20//1 21//1 22//1
f 20//1 22//1 23//1
f 23//1 22//1 24//1
f 23//1 24//1 25//1
f 23//1 25//1 26//1
f 26//1 25//1 27//1
f 26//1 27//1 28//1
f 28//1 27//1 29//1
f 28//1 29//1 30//1
f 30//1 29//1 31//1
f 30//1 31//1 32//1
f 32//1 31//1 33//1
f 32//1 33//1 34//1
f 34//1 33//1 35//1
f 34//1 35//1 36//1
f 36//1 35//1 37//1
f 36//1 37//1 38//1
f 38//1 37//1 39//1
f 39//1 37//1 40//1
f 39//1 40//1 41//1
f 41//1 40//1 42//1
f 41//1 42//1 43//1
f 43//1 42//1 44//1
f 44//1 42//1 45//1
f 44//1 45//1 46//1
f 44//1 46//1 47//1
f 47//1 46//1 48//1
f 47//1 48//1 49//1
f 49//1 48//1 50//1
f 49//1 50//1 51//1
f 51//1 50//1 52//1
f 52//1 50//1 53//1
f 52//1 53//1 54//1
f 54//1 53//1 55//1
f 54//1 55//1 56//1
f 54//1 56//1 57//1
f 57//1 56//1 58//1
f 58//1 56//1 59//1
f 58//1 59//1 60//1
f 60//1 59//1 61//1
f 60//1 61//1 62//1
f 60//1 62//1 63//1
f 63//1 62//1 64//1
f 64//1 62//1 65//1
f 64//1 65//1 66//1
f 66//1 65//1 67//1
f 66//1 67//1 68//1
f 66//1 68//1 69//1
f 69//1 68//1 70//1
f 70//1 68//1 71//1
f 70//1 71//1 72//1
f 72//1 71//1 73//1
f 72//1 73//1 74//1
f 74//1 73//1 75//1
f 74//1 75//1 76//1
f 76//1 75//1 77//1
f 76//1 77//1 78//1
f 78//1 77//1 79//1
f 78//1 79//1 80//1
f 80//1 79//1 81//1
f 80//1 81//1 82//1
f 82//1 81//1 83//1
f 82//1 83//1 84//1
f 84//1 83//1 85//1
f 84//1 85//1 86//1
f 86//1 85//1 87//1
f 86//1 87//1 88//1
f 88//1 87//1 89//1
f 88//1 89//1 90//1
f 90//1 89//1 91//1
f 90//1 91//1 92//1
f 92//1 91//1 93//1
f 92//1 93//1 94//1
f 94//1 93//1 95//1
f 94//1 95//1 96//1
f 96//1 95//1 97//1
f 96//1 97//1 98//1
f 98//1 97//1 99//1
f 98//1 99//1 100//1
f 100//1 99//1 101//1
f 100//1 101//1 102//1
f 102//1 101//1 103//1
f 102//1 103//1 104//1
f 104//1 103//1 105//1
f 104//1 105//1 106//1
f 106//1 105//1 107//1
f 106//1 107//1 108//1
f 108//1 107//1 109//1
f 108//1 109//1 110//1
f 110//1 109//1 111//1
f 110//1 111//1 112//1
f 112//1 111//1 113//1
f 112//1 113//1 114//1
f 114//1 113//1 115//1
f 114//1 115//1 116//1
f 116//1 115//1 117//1
f 116//1 117//1 118//1
f 118//1 117//1 119//1
f 118//1 119//1 120//1
f 120//1 119//1 121//1
f 120//1 121//1 122//1
f 122//1 121//1 123//1
f 122//1 123//1 124//1
f 124//1 123//1 125//1
f 124//1 125//1 126//1
f 126//1 125//1 127//1
f 126//1 127//1 128//1
f 128//1 127//1 129//1
f 128//1 129//1 130//1
f 130//1 129//1 131//1
f 130//1 131//1 132//1
f 132//1 131//1 133//1
f 132//1 133//1 134//1
f 134//1 133//1 135//1
f 134//1 135//1 136//1
f 136//1 135//1 137//1
f 136//1 137//1 138//1
f 138//1 137//1 139//1
f 138//1 139//1 140//1
f 140//1 139//1 141//1
f 140//1 141//1 142//1
f 142//1 141//1 143//1
f 142//1 143//1 144//1
f 144//1 143//1 145//1
f 144//1 145//1 146//1
f 146//1 145//1 147//1
f 146//1 147//1 148//1
f 148//1 147//1 149//1
f 148//1 149//1 150//1
f 150//1 149//1 151//1
f 150//1 151//1 152//1
f 152//1 151//1 153//1
f 152//1 153//1 154//1
f 154//1 153//1 155//1
f 154//1 155//1 156//1
f 156//1 155//1 157//1
f 156//1 157//1 158//1
f 158//1 157//1 159//1
f 158//1 159//1 160//1
f 160//1 159//1 161//1
f 160//1 161//1 162//1
f 162//1 161//1 163//1
