# SSTK version 0.8.0
# 33
mtllib original-33.mtl
o #ID203
v 0.035312 -0.716629 0.181033
v 0.034907 -0.715324 0.181497
v 0.035286 -0.716637 0.181033
v 0.034943 -0.715313 0.181497
v 0.034943 -0.715313 0.181497
v 0.034907 -0.715323 0.181497
v 0.034907 -0.715324 0.181497
v 0.034514 -0.713963 0.181779
v 0.034561 -0.713950 0.181779
v 0.034561 -0.713950 0.181779
v 0.034514 -0.713963 0.181779
v 0.034514 -0.713963 0.181779
v 0.034115 -0.712580 0.181873
v 0.034172 -0.712563 0.181873
vn 0.08909766300777075 -0.3088445104260143 0.9469301319665931
vn 0.05376030114175887 -0.18754760398312786 0.9807832208298303
vn 0.018017620428423718 -0.06287712149509499 0.9978586237271233
usemtl material_0_0
f 1//1 2//1 3//1
f 2//1 1//1 4//1
f 5//2 6//2 7//2
f 6//2 5//2 8//2
f 8//2 5//2 9//2
f 10//3 11//3 12//3
f 11//3 10//3 13//3
f 13//3 10//3 14//3
