# SSTK version 0.8.0
# 39
mtllib original-39.mtl
o #ID239
v -0.117672 -0.090140 0.160865
v -0.135582 -0.076202 0.185791
v -0.135582 -0.076202 0.160865
v -0.117672 -0.090140 0.185791
v -0.098219 -0.101830 0.160865
v -0.098219 -0.101830 0.185791
v 0.011807 -0.121892 0.185791
v -0.033501 -0.121892 0.185791
v -0.010847 -0.123256 0.185791
v 0.034133 -0.117821 0.185791
v -0.055828 -0.117821 0.185791
v 0.055810 -0.111101 0.185791
v -0.077505 -0.111101 0.185791
v 0.076525 -0.101830 0.185791
v -0.098219 -0.101830 0.185791
v 0.095978 -0.090140 0.185791
v -0.117672 -0.090140 0.185791
v 0.113888 -0.076202 0.185791
v -0.135582 -0.076202 0.185791
v 0.091026 -0.063007 0.185791
v -0.112721 -0.063007 0.185791
v 0.066788 -0.052554 0.185791
v -0.088482 -0.052554 0.185791
v -0.063194 -0.044986 0.185791
v 0.041500 -0.044986 0.185791
v 0.015505 -0.040404 0.185791
v -0.037199 -0.040404 0.185791
v -0.010847 -0.038869 0.185791
v -0.112721 -0.063007 0.185791
v -0.135582 -0.076202 0.160865
v -0.135582 -0.076202 0.185791
v -0.112721 -0.063007 0.160865
v -0.077505 -0.111101 0.160865
v -0.077505 -0.111101 0.185791
v -0.055828 -0.117821 0.160865
v -0.055828 -0.117821 0.185791
v -0.033501 -0.121892 0.160865
v -0.033501 -0.121892 0.185791
v -0.010847 -0.123256 0.160865
v -0.010847 -0.123256 0.185791
v 0.011807 -0.121892 0.160865
v 0.011807 -0.121892 0.185791
v 0.034133 -0.117821 0.160865
v 0.034133 -0.117821 0.185791
v 0.055810 -0.111101 0.160865
v 0.055810 -0.111101 0.185791
v 0.076525 -0.101830 0.160865
v 0.076525 -0.101830 0.185791
v 0.095978 -0.090140 0.160865
v 0.095978 -0.090140 0.185791
v 0.113888 -0.076202 0.160865
v 0.113888 -0.076202 0.185791
v 0.113888 -0.076202 0.185791
v 0.091026 -0.063007 0.160865
v 0.091026 -0.063007 0.185791
v 0.113888 -0.076202 0.160865
v 0.066788 -0.052554 0.160865
v 0.066788 -0.052554 0.185791
v 0.041500 -0.044986 0.160865
v 0.041500 -0.044986 0.185791
v 0.015505 -0.040404 0.160865
v 0.015505 -0.040404 0.185791
v -0.010847 -0.038869 0.160865
v -0.010847 -0.038869 0.185791
v -0.037199 -0.040404 0.160865
v -0.037199 -0.040404 0.185791
v -0.063194 -0.044986 0.160865
v -0.063194 -0.044986 0.185791
v -0.088482 -0.052554 0.160865
v -0.088482 -0.052554 0.185791
vn -0.5656386209059472 -0.8246532304791014 0
vn -0.6141655885693958 -0.7891771853121501 0
vn -0.4626358118008681 -0.8865484226139887 0
vn 0 0 1
vn -0.4486897059945282 0.8936876119397337 0
vn -0.4998806123098477 0.866094321328071 0
vn -0.35295218502092135 -0.9356413602919428 0
vn -0.2381716918242209 -0.9712230666605836 0
vn -0.11995199909819547 -0.9927796925362377 0
vn 0 -1 0
vn 0.11995199909819547 -0.9927796925362377 0
vn 0.2381716918242209 -0.9712230666605836 0
vn 0.35295218502092135 -0.9356413602919428 0
vn 0.4626358118008681 -0.8865484226139887 0
vn 0.5656386209059472 -0.8246532304791014 0
vn 0.6141655885693958 -0.7891771853121501 0
vn 0.4998806123098477 0.866094321328071 0
vn 0.4486897059945282 0.8936876119397337 0
vn 0.34193378158631077 0.9397240493943343 0
vn 0.23055620243934918 0.9730590102952369 0
vn 0.11606250140308771 0.9932419120073711 0
vn 0 1 0
vn -0.11606250140308771 0.9932419120073711 0
vn -0.23055620243934918 0.9730590102952369 0
vn -0.34193378158631077 0.9397240493943343 0
usemtl material_0_0
f 1//1 2//2 3//2
f 2//2 1//1 4//1
f 5//3 4//1 1//1
f 4//1 5//3 6//3
f 7//4 8//4 9//4
f 8//4 7//4 10//4
f 8//4 10//4 11//4
f 11//4 10//4 12//4
f 11//4 12//4 13//4
f 13//4 12//4 14//4
f 13//4 14//4 15//4
f 15//4 14//4 16//4
f 15//4 16//4 17//4
f 17//4 16//4 18//4
f 17//4 18//4 19//4
f 19//4 18//4 20//4
f 19//4 20//4 21//4
f 21//4 20//4 22//4
f 21//4 22//4 23//4
f 23//4 22//4 24//4
f 24//4 22//4 25//4
f 24//4 25//4 26//4
f 24//4 26//4 27//4
f 27//4 26//4 28//4
f 29//5 30//6 31//6
f 30//6 29//5 32//5
f 33//7 6//3 5//3
f 6//3 33//7 34//7
f 35//8 34//7 33//7
f 34//7 35//8 36//8
f 37//9 36//8 35//8
f 36//8 37//9 38//9
f 39//10 38//9 37//9
f 38//9 39//10 40//10
f 41//11 40//10 39//10
f 40//10 41//11 42//11
f 43//12 42//11 41//11
f 42//11 43//12 44//12
f 45//13 44//12 43//12
f 44//12 45//13 46//13
f 47//14 46//13 45//13
f 46//13 47//14 48//14
f 49//15 48//14 47//14
f 48//14 49//15 50//15
f 51//16 50//15 49//15
f 50//15 51//16 52//16
f 53//17 54//18 55//18
f 54//18 53//17 56//17
f 55//18 57//19 58//19
f 57//19 55//18 54//18
f 58//19 59//20 60//20
f 59//20 58//19 57//19
f 60//20 61//21 62//21
f 61//21 60//20 59//20
f 62//21 63//22 64//22
f 63//22 62//21 61//21
f 64//22 65//23 66//23
f 65//23 64//22 63//22
f 66//23 67//24 68//24
f 67//24 66//23 65//23
f 68//24 69//25 70//25
f 69//25 68//24 67//24
f 70//25 32//5 29//5
f 32//5 70//25 69//25
